<svg xmlns="http://www.w3.org/2000/svg" width="900" height="600" viewBox="0 0 10368 6912" fill="#fff"><path fill="#006c35" d="M0 0h10368v6912H0z"/><path d="M6700 5138h-144c-16 21-41 46-55 46-17 0-63-47-63-64 0-13 22-38 42-54v-39H3870c-344 0-515-3-630-118h3240v-39c-19-15-42-41-42-54 0-17 46-64 63-64s63 47 63 64c0 13-23 39-42 54v39h440c118 0 166 10 166 118 0 115-31 136-80 136-17 0-45-1-66-25h-171a60 40 0 0 1-111 0zm111-36h151c-8-22-8-45 0-75h-440v39c11 8 26 25 34 36h144a60 40 0 0 1 111 0zm249-1798c10 12 16 23-1 43-16 14-27 22-44 36-7 12-12 31 11 37 44 12 125-40 125-41 17-12 11-34 10-34-10-10-31-4-45-6-7 0-11-13-1-32 9-12 13-19 19-33s0-24-24-32c-25-4-35-2-62 0-15 3-20 10-23 27 1 26 18 24 35 35zm-190-618c-14 19-24 34 3 49 28 14 70 53 52 97-10 34 0 61 31 12 32-51 7-112-24-151-27-34-45-27-62-7zm842-698c38 33 59 23 35-33-28-56-55-115-80-168-27-56-34-43-65-3-35 39-38 69-25 92 66 523 97 796 104 954 14 230-45 359-280 507-76 49-162 105 21 62 171-41 354-149 354-562 0-311-72-644-64-849zm-280-106c-21 33-17 40 7 76 24 40 45 112 45 168s21 49 31-3c11-50 7-148-24-217-31-73-42-47-59-24zm201 1089c-7-46-21-92-83-180-62-86-118-165-173-241-17-197-42-408-42-519 28 26 49 0 35-43s-42-158-62-207c-18-47-38-37-66 6-24 43-41 63-24 95 7 191 34 376 66 543-56-72-108-141-156-204-3-72-10-144-14-217 31 23 45 17 28-26-14-46-52-142-69-184-18-43-28-43-52-10-38 56-49 95-17 148 3 46 10 95 13 138-31-39-58-79-83-115 31 16 56-10 21-40-31-29-97-79-124-115-31-36-59-36-59-3s3 62 0 92c-7 26-7 53 34 99 80 92 156 187 229 276 27 329 45 540 38 671-4 79-31 125-76 138-45 17-90-13-132-72-76-105-103-85-162 7-56 85-94 158-125 220-27 59-76 112-121 33-41-79-48-168-45-230 0-63-10-112-34-13-62 243-24 296 45 348 86 73 114 79 159 17 90-119 114-224 166-283 41-46 41-10 62 13 52 62 97 85 169 95 73 13 204-46 194-276-7-138-17-326-31-526 69 92 131 174 180 240 24 131 38 250 31 345-7 109 17 109 41-3 7-46 7-142-3-257 93 119 148 198 186 254 42 69 66 128 56-14zm-948-259c0-23 11-30 52-63 35-26 132-92 163-122 31-29 55-56 62-19 3 36 10 49-28 69-38 16-138 75-169 98-35 27-80 60-80 37zm11-405c-7 30-49 30-45-3 3-33 0-27 0-53-4-26 31-43 48-20 21 23 56 96 66 122 14 26 21 20 21-16-4-43-11-83-7-112 3-17 14-37 34-53 25-16 38-20 49 10 7 26 27 29 17 53-14 32-45-33-66 13-10 33 0 125-3 158 0 29-14 72-38 23-17-33-42-89-76-122zm-239-267c49 23 101 37 63-19-39-53-70-142-90-208-25-65-31-62-70-6-58 85-6 168 7 266 49 352 97 711 111 806 14 106 31 175 3 290-10 36 4 46 28 3 97-174 31-326 21-424-17-152-73-553-83-714m-228-10c27 23 59 23 41-26-17-50-31-109-48-165s-28-69-49-43c-24 30-41 40-58 60-18 16-21 52 0 85 76 497 79 717 90 902 10 184 38 269-83 394-132 135-211 168-270 181-66 18-93 44-22 44 232 0 255-62 350-162 77-81 114-184 108-428-7-428-70-612-59-842zm-868 1257c35-20 52-36 79-46 28-14 49-10 28 46-21 65-10 85 35 69 41-13 65-30 100-43 31-13 66-13 17 23-38 30-93 69-124 76-69 16-104-10-90-63 14-49 24-69-17-52-49 19-45 0-28-10zm557-1119c13 40 31 59 41 10 7-43 21-56 28-10 10 46 38 40 45-3 10-43 24-66 31-20 7 49 3 66-4 82-3 14-31 30-52 10-24-20-31-20-48-3-38 33-52 10-59-36-3-40 11-56 18-30zm231 829c-31-148-173-385-384-694-6-82-10-158-10-227 31 33 52 13 42-30-21-75-52-138-90-223-14-36-52-46-69 6-25 63-28 76 3 119-3 46 14 125 21 197-38-53-87-118-125-174 59 23 94 6 42-46-52-56-125-112-170-152-45-39-65-13-58 23 3 37 7 63 3 92-3 30 7 50 52 66 90 112 180 227 263 346 10 98 31 207 41 296 28 210 69 483 35 602-28 89 0 128 45-7 41-135 37-263 10-464-11-78-14-177-24-269 145 213 276 417 335 559 31 76 59 92 38-20zm-259-1201c-14 27-24 46 3 66 28 20 70 73 52 132-10 46 0 82 31 16 31-69 7-151-24-204-28-46-45-36-62-10zm-1023 718c-7 46 3 75 20 98 18 23 52 20 63-6 10-30 17-33 38-10 24 23 103 3 65-112-17-46-24-36-24 16 0 83-28 83-59 4-10-30-24-30-27 10 0 75-35 85-56 9-7-32-13-59-20-9zm477 118c72-16 31-23-18-53-51-29-72-29-69 4 4 19 4 39 11 65 24-6 48-9 76-16zm-142-161c55-76 145-53 249 16s62 178-38 234c-24 13-55 26-94 39 11 23-3 30-34 10-90 30-208 73-290 115 100 7 515 0 598-10 83-6 69 7 45 76-25 66-52 59-121 69-111 20-274 66-391 112-118 46-76 128 45 171 93 23 83 33 66 86-14 49-14 62-128 46-280-43-381-191-426-306-172 233-342 362-501 322-79-16-117-85-124-171-111 49-239 92-405 138-38 13-69-3-17-26 110-53 283-141 425-237 14-59 45-141 76-201 17-36 28-23 28 7 0 23-7 82-4 125 25-20 59-39 76-56 97-82 204-135 132-266-31-60-56-102-66-129-62-23-45-56-17-112 27-55 38-69 93-6 80 89 90 128 35 122 86 210 65 319-69 444-63 62-128 112-204 151-7 56 17 112 127 95 146-19 308-200 377-338-31-116-100-323-141-428-21-53 0-76 17-119 21-42 31-69 55-9 24 56 100 197 135 365 38 168 31 312 121 391 42 36 93 60 149 73-42-112 45-198 159-237-69-63-177-53-298-59-89-4-79-14-55-89 24-76 52-86 118-112 90-33 179-66 273-92-59-82-21-142 24-204zm-436-675c-24 23-24 27-3 56 21 23 52 96 41 171-3 33 4 66 21 7 14-59 10-142-7-191s-38-62-52-43zm-470 129c-55 148-52 289 62 411 66 69 114 36 142-40 31-72 52-144 73-194 20-49 38-39 34 7-10 92-17 240 80 296s245-39 297-138c156 197 294 105 311-86 4-59-24-187-41-223-17-40-7-40 17-20 24 23 66 36 45-30-24-62-52-98-90-128-34-30-41-13-55 10s-11 29-31 46c-21 20-18 29 0 66 58 144 114 355 20 375-86 16-141-162-145-240-3-106-17-195-38-250-15-36-24-53-32-53-14 0-34 57-47 79-14 23 0 29 10 75 52 231 45 336-66 395-110 63-169 4-169-69-3-72-3-161 7-227 7-66 24-75 0-108-24-37-45-23-76 19-69 92-138 247-163 319-24 76-72 50-107-13-38-75-34-210-21-263 14-53 7-76-17-16zm-142-56c7-20-10-40-24-10-10 23-14 39 7 53 7-14 14-30 17-43zm-83-30c42-102 180-89 142 43-3 20-14 46-27 72 20 27 10 60-32 53-45 69-131 145-280 207-69 30-79 7-27-23 100-62 193-138 252-217-45-36-45-89-28-135zm-24 365c-41 50-72 122-14 165 32 26 97-3 121-53 25-52 14-59-27-16-59 62-118 6-56-79 42-59 18-73-24-17zm-93 724c7 23 3 76-7 99-14 29 0 43 21 6 20-39 34-85 24-131-4-33-4-43-35-56-34-13-45 6-55 33-14 33 3 69 52 49zm-533-217c-62 16-72-7-69-43 4-36 7-46 49-29 17 6 38 29 59 59-14 3-28 10-39 13zm52-148c-62-59-114-63-166 10-48 69-45 85-41 148 3 62-10 85 41 102 49 16 70 10 101 0 24-7 58-17 93-30 7 33 3 69-17 96-128 144-325 250-412 154-48-52-69-135-55-233 14-83-14-46-24-17-31 96-42 234 0 303 59 95 152 138 301 76 148-63 293-175 287-329 0-30-4-56-4-76 14-7 38-23 55-30 4 53-3 119 0 171 7 168-62 217-124 264-87 65-204 108-304 125-239 32-294-112-291-306 0-30 14-50 14-93-3-82-14-69-41 14-25 79-56 263 24 414 83 152 363 109 581 10 214-99 238-286 228-474 0-49-4-102-7-158 7-3 10-9 14-13 31 96 176 69 221 13 24-26 24-29 45 0 31 43 138 56 166-3 24-62 21-122 14-168s-18-42-49-19c-34 26-7 29-3 62 14 125-100 115-114-13-7-79-21-49-31-13-49 154-191 184-177 6 4-52-31-36-48-16-17 13-31 30-48 39-11-144-21-309-39-506 42 49 80-7 52-63-20-43-52-138-72-191-18-52-28-36-73 7-41 46-34 56-14 102-7 56 4 112 18 227 10 82 38 253 51 470-20 10-51 30-72 40-17-36-42-66-80-102zm-743 418c3 33 3 56 3 69 0 23-13 46-20 75-42 142 20 211 55 158 31-52 48-46 45-3-3 142-145 151-156 33-17-188 28-217 42-280 10-42 24-75 31-52zm-73-208c101-115 229-174 294-194 42-13 63-29 63 10 3 36 0 40-35 50-80 19-246 98-301 138-27 20-62 43-21-4zm564-990c-10 27-3 59 14 79 17 23 48 23 69 7 17-20 17-23 35 3 10 20 44 13 55-7 7-16 17-32 7-55-11-23-11-17-18 9-6 43-48 33-51-19 0-50-11-23-25 10-24 49-58 39-58-4 0-36-11-66-28-23zm-149 691c11 119 45 339 45 415 4 79 14 56 35 13s17-89 14-152c-7-65-11-174-25-322 28-20 52-53 63-72 27-50 34-46 45-7 20 79 103 132 214 56 104-69 59-214 14-372 38 7 52-23 27-62-10-23-31-43-48-63s-35-36-52-16c-14 20-31 36-41 49-11 13-11 26 3 59 42 92 69 191 76 247 11 53-10 66-48 66s-90-10-111-89-31-115-27-168c3-52 10-89-28-141-42-53-45-43-55-17-7 30-21 73-7 122 17 72 27 135 38 178 7 29-25 92-69 125-11-99-28-231-35-336 59-20 28-95-21-177-34-63-48-37-72 3-25 39-7 56 10 89-14 26 10 65 21 138 3 46 14 177 24 293-48 0-76-30-93-69-38-83-28-158-11-208 18-49 35-125 4-144-28-20-66 3-90 39-42 59-80 145-83 234-4 36-14 105-31 131-14 27-38 30-63-10-41-62-55-220-51-302 0-40-11-46-25 0-12 42-17 85-17 126 0 116 34 222 62 275 38 72 87 56 121-3 52-89 31-168 80-300 28-82 38-19 28 30-25 132-18 345 179 342zm-297-516c35-93 38-175-3-145-35 26-56 0-28-30 34-43 79-56 90 17 3 56-38 125-59 158z"/></svg>
