<svg version="1.1" id="Layer_1" xmlns="http://www.w3.org/2000/svg" xmlns:xlink="http://www.w3.org/1999/xlink" x="0px" y="0px"
	 width="100%" viewBox="0 0 255 146" enable-background="new 0 0 255 146" xml:space="preserve">
<path fill="#FFFEFE" opacity="1.000000" stroke="none" 
	d="
M1.000000,98.000000 
	C1.000000,82.312439 1.000000,66.624878 1.322939,50.370949 
	C2.490868,49.598656 3.335859,49.392738 4.619901,49.149185 
	C7.966872,49.146336 10.953032,49.606205 13.759476,49.089661 
	C16.283352,48.625122 18.609991,47.088982 21.012939,46.013714 
	C21.002251,46.001915 21.027313,46.028248 21.342072,46.016548 
	C22.073034,45.952038 22.489239,45.899231 23.138716,45.913811 
	C23.371986,45.981194 23.849865,46.067532 23.920416,46.427162 
	C24.997768,47.530430 26.004568,48.274067 27.458221,48.979271 
	C31.592833,48.927689 35.280590,48.914539 39.415131,48.903778 
	C42.491138,48.984047 45.179005,49.423176 47.728413,49.009327 
	C49.353489,48.745522 50.773392,47.217796 52.655174,46.195770 
	C55.515644,47.063103 58.006229,47.991444 60.588699,48.954037 
	C61.482231,48.173035 62.694168,47.113731 63.988327,46.419525 
	C67.737602,50.045151 71.764183,49.900040 76.157745,48.165897 
	C80.817429,48.919231 85.646233,51.533791 89.013275,46.014080 
	C89.004478,46.004593 89.027313,46.028248 89.342072,46.016544 
	C90.073036,45.952038 90.489235,45.899235 91.138718,45.913811 
	C91.371986,45.981190 91.849861,46.067528 91.920418,46.427158 
	C92.997772,47.530430 94.004562,48.274071 95.458214,48.979275 
	C99.592834,48.927685 103.280602,48.914532 107.415146,48.903770 
	C110.491150,48.984047 113.179008,49.423172 115.728409,49.009327 
	C117.353493,48.745525 118.773399,47.217804 120.655182,46.195778 
	C123.515656,47.063107 126.006241,47.991447 128.588699,48.954033 
	C129.482239,48.173027 130.694168,47.113724 131.988281,46.419384 
	C135.818207,49.650589 139.667679,50.747887 143.788422,47.425484 
	C143.807312,47.393822 143.883316,47.352947 143.981964,47.528824 
	C144.080597,47.704700 144.399277,47.951859 144.506302,48.202065 
	C148.993927,48.891121 153.801102,51.509518 157.013275,46.014084 
	C157.004501,46.004597 157.027283,46.028259 157.342041,46.016548 
	C158.073013,45.952038 158.489227,45.899235 159.138702,45.913815 
	C159.371979,45.981197 159.849869,46.067520 159.920410,46.427147 
	C160.997757,47.530426 162.004547,48.274075 163.458191,48.979279 
	C167.592819,48.927692 171.280563,48.914547 175.415100,48.903782 
	C178.491104,48.984047 181.178970,49.423164 183.728378,49.009315 
	C185.353455,48.745510 186.773346,47.217808 188.655121,46.195786 
	C191.515610,47.063103 194.006210,47.991432 196.588715,48.954025 
	C197.482239,48.173042 198.694168,47.113735 199.988327,46.419533 
	C203.737610,50.045128 207.764191,49.900059 212.157745,48.165901 
	C216.817429,48.919209 221.646225,51.533806 225.013275,46.014084 
	C225.004501,46.004597 225.027283,46.028259 225.342041,46.016552 
	C226.073013,45.952042 226.489227,45.899239 227.138702,45.913818 
	C227.371979,45.981197 227.849869,46.067520 227.920502,46.427773 
	C229.001190,47.535191 230.011276,48.282360 231.471878,48.996517 
	C238.898987,49.034229 245.875580,49.104958 253.108429,49.390244 
	C254.243149,49.736538 255.121567,49.868267 256.000000,50.000000 
	C256.000000,65.687561 256.000000,81.375122 255.661133,97.636993 
	C254.255585,98.591927 253.188904,98.972557 251.742889,99.286125 
	C250.596466,99.257271 249.829376,99.295479 248.601013,99.224388 
	C242.438675,99.062233 236.737595,99.009377 230.925812,98.783112 
	C230.528214,98.722870 230.241333,98.836037 229.571472,98.968826 
	C227.448105,99.136887 225.707718,99.285324 223.586456,99.411057 
	C222.951981,99.407776 222.698380,99.427193 222.167084,99.340576 
	C221.130814,99.408920 220.372253,99.583290 219.403229,99.449417 
	C218.659180,99.394302 218.125565,99.647430 217.381073,100.147339 
	C217.260620,100.590729 217.351074,100.787338 217.469971,100.995758 
	C217.498398,101.007576 217.554260,100.981667 217.540207,100.517746 
	C215.006012,99.775620 212.485855,99.497406 209.657898,99.092606 
	C208.409653,99.609322 207.469208,100.252640 206.532898,100.919876 
	C206.537003,100.943810 206.538193,100.992287 206.463943,100.532013 
	C205.777039,100.379395 205.164398,100.687050 204.537262,100.989952 
	C204.522781,100.985199 204.495346,100.998558 204.505157,100.567558 
	C204.020142,99.900558 203.525314,99.664558 202.757248,99.273804 
	C201.651779,99.154877 200.819565,99.190697 199.528229,99.157562 
	C194.715378,99.054535 190.361664,99.020462 185.796600,98.772415 
	C184.256729,99.341133 182.928223,100.123817 181.620941,100.931824 
	C181.642166,100.957138 181.696930,100.913902 181.658737,100.479332 
	C181.090836,99.853493 180.561111,99.662231 179.654022,99.305229 
	C173.863052,99.078682 168.449448,99.017876 162.925461,98.783447 
	C162.528183,98.722954 162.241318,98.836075 161.514679,98.971161 
	C158.729111,99.068344 156.383301,99.143570 153.692169,99.153999 
	C152.882370,99.132393 152.417908,99.175583 151.633606,99.103004 
	C150.876312,98.993774 150.438889,99.000305 149.554916,99.020264 
	C146.727112,99.095520 144.345856,99.157364 141.656876,99.092499 
	C140.406570,99.609291 139.463989,100.252800 138.525772,100.920250 
	C138.530151,100.944191 138.533569,100.992691 138.527527,100.579453 
	C138.028381,100.056061 137.535248,99.945908 136.882568,99.631088 
	C136.206558,99.422028 135.690125,99.417633 134.794159,99.264725 
	C133.605438,99.153297 132.796249,99.190376 131.528030,99.158127 
	C126.715309,99.054665 122.361641,99.020531 117.784653,98.766090 
	C116.079308,98.824623 114.597267,99.103462 112.653488,99.255005 
	C106.473129,99.070847 100.754509,99.013977 94.925491,98.783478 
	C94.528175,98.722984 94.241272,98.836136 93.514587,98.971230 
	C90.729050,99.068382 88.383308,99.143593 85.691315,99.153992 
	C84.879440,99.132339 84.413811,99.175484 83.591949,99.088135 
	C82.509750,99.044594 81.783775,99.131554 80.618301,99.149689 
	C78.107422,99.126984 76.036034,99.173088 73.651924,99.090515 
	C72.380318,99.631386 71.421432,100.300919 70.475632,100.990906 
	C70.488716,101.011360 70.533562,100.992691 70.527542,100.579468 
	C70.028404,100.056076 69.535301,99.945900 68.882599,99.631058 
	C68.206566,99.422005 67.690117,99.417618 66.794128,99.264725 
	C65.605400,99.153297 64.796211,99.190376 63.527992,99.158127 
	C58.715290,99.054665 54.361633,99.020538 49.796631,98.772446 
	C48.256794,99.341156 46.928307,100.123833 45.621044,100.931824 
	C45.642269,100.957138 45.697048,100.913902 45.658829,100.479324 
	C45.090874,99.853485 44.561138,99.662231 43.654022,99.305222 
	C37.863068,99.078690 32.449486,99.017891 26.925547,98.783539 
	C26.528351,98.722954 26.241512,98.835922 25.519669,98.970779 
	C23.054298,99.069763 21.023930,99.146851 18.531788,99.154572 
	C13.437913,98.995651 8.805811,98.906090 3.912832,98.603233 
	C2.767971,98.259956 1.883986,98.129974 1.000000,98.000000 
M137.020218,67.048935 
	C138.165146,75.504929 136.080612,81.187645 130.654724,83.745430 
	C129.313187,75.562126 133.093140,66.989449 128.587845,58.256054 
	C123.603493,66.922684 128.025513,75.706924 125.401932,84.062294 
	C123.195137,81.415520 121.049095,78.675865 120.223549,75.583672 
	C119.357300,72.339043 119.756989,68.756439 119.585472,64.919823 
	C112.836601,75.206467 119.106346,84.799103 129.279068,92.001114 
	C131.465729,89.583542 133.735855,87.071983 136.007874,84.562141 
	C140.212357,79.917534 141.540649,72.003586 138.859894,66.855164 
	C138.632370,66.418205 137.590118,66.405479 137.020218,67.048935 
M113.887650,72.871788 
	C115.014534,69.484795 116.141426,66.097809 117.403580,62.304253 
	C108.787224,67.537300 107.765572,78.441528 114.851639,83.433357 
	C114.509758,80.249275 114.160217,76.993851 113.887650,72.871788 
M146.448196,71.222984 
	C144.607452,65.296532 143.386993,63.863575 139.173309,63.135464 
	C143.940704,69.751076 144.313293,76.701904 140.846542,85.152786 
	C145.942917,80.995911 147.088943,76.818130 146.448196,71.222984 
M140.506851,85.474014 
	C140.506851,85.474014 140.508286,85.513069 140.506851,85.474014 
z"/>
<path fill="#24A041" opacity="1.000000" stroke="none" 
	d="
M27.011368,49.017708 
	C26.004568,48.274067 24.997768,47.530430 23.977245,46.049271 
	C23.645023,44.211845 23.326523,43.111938 22.629387,42.023033 
	C21.842936,43.365440 21.435123,44.696842 21.027313,46.028248 
	C21.027313,46.028248 21.002251,46.001915 20.613132,46.011314 
	C15.568095,44.221840 10.903536,44.098537 6.055062,45.687428 
	C5.402135,45.069218 4.922949,44.712139 4.054544,44.065022 
	C4.125420,45.315010 4.169516,46.092709 4.191837,47.256096 
	C4.173657,48.156796 4.177254,48.671810 4.180851,49.186821 
	C3.335859,49.392738 2.490868,49.598656 1.322939,49.902290 
	C1.000000,33.686928 1.000000,17.373854 1.000007,1.060963 
	C86.000023,1.061144 171.000031,1.061144 256.000000,1.061144 
	C256.000000,17.102421 256.000000,33.082550 256.000000,49.531342 
	C255.121567,49.868267 254.243149,49.736538 253.124420,49.033077 
	C252.142624,47.537971 251.472900,45.893871 250.647675,45.811703 
	C246.278580,45.376663 241.713272,45.985611 237.519745,44.973724 
	C233.284149,43.951694 231.779388,45.416492 231.021347,49.029530 
	C230.011276,48.282360 229.001190,47.535191 227.977325,46.049881 
	C227.645004,44.211842 227.326508,43.111938 226.629364,42.023041 
	C225.842911,43.365444 225.435104,44.696854 225.027283,46.028259 
	C225.027283,46.028259 225.004501,46.004597 224.614777,46.010921 
	C220.161194,44.210255 216.082870,44.362610 211.982056,45.896927 
	C211.696533,46.003750 211.334686,45.906563 210.784210,45.670334 
	C209.915741,44.860081 209.271362,44.283741 208.626999,43.707397 
	C208.715424,43.318321 208.803848,42.929241 208.892288,42.540161 
	C213.426788,42.540161 217.961288,42.540161 222.495789,42.540161 
	C222.460922,42.142441 222.426071,41.744720 222.391205,41.347000 
	C216.876511,41.347000 211.361816,41.347000 205.908661,41.347000 
	C205.525665,43.235012 209.828491,46.791267 203.668900,45.804222 
	C202.915955,43.849602 203.488174,41.134003 199.848022,41.863266 
	C187.599487,41.513729 175.609207,41.513729 163.618927,41.513729 
	C163.602219,42.022339 163.585510,42.530945 163.568802,43.039555 
	C166.909027,43.039555 170.265030,42.849480 173.582382,43.124935 
	C175.094177,43.250462 176.529602,44.295536 177.685303,45.009026 
	C176.578171,45.404995 175.785400,45.715473 174.866882,45.751160 
	C172.975220,45.358772 171.048218,45.655239 169.474564,45.043224 
	C165.333191,43.432579 163.748642,45.396236 163.011337,49.017723 
	C162.004547,48.274075 160.997757,47.530426 159.977234,46.049263 
	C159.645004,44.211842 159.326508,43.111938 158.629364,42.023041 
	C157.842911,43.365444 157.435089,44.696850 157.027283,46.028259 
	C157.027283,46.028259 157.004501,46.004597 156.614609,46.010921 
	C155.246704,45.897789 154.006454,46.119743 153.333618,45.602955 
	C149.248474,42.465271 146.814941,45.062046 144.399277,47.951859 
	C144.399277,47.951859 144.080597,47.704700 143.953537,47.048103 
	C143.553909,46.229420 143.281326,46.067333 142.784729,45.671165 
	C141.916107,44.861038 141.271500,44.284981 140.626892,43.708923 
	C140.715149,43.321960 140.803421,42.934998 140.891678,42.548035 
	C145.424622,42.548035 149.957550,42.548035 154.490494,42.548035 
	C154.462585,42.081734 154.434692,41.615433 154.406784,41.149132 
	C148.659637,41.149132 142.912476,41.149132 136.848892,41.102093 
	C136.024429,41.362244 135.516373,41.669434 134.643311,41.937218 
	C133.554291,42.002747 132.830292,42.107677 131.848007,41.863106 
	C119.599480,41.513599 107.609238,41.513599 95.618988,41.513599 
	C95.602242,42.022251 95.585487,42.530903 95.568741,43.039555 
	C98.908989,43.039555 102.265030,42.849480 105.582405,43.124939 
	C107.094185,43.250462 108.529610,44.295540 109.685318,45.009033 
	C108.578178,45.405003 107.785400,45.715477 106.866882,45.751167 
	C104.975212,45.358784 103.048225,45.655243 101.474564,45.043232 
	C97.333237,43.432644 95.748604,45.396156 95.011360,49.017715 
	C94.004562,48.274071 92.997772,47.530430 91.977249,46.049271 
	C91.645027,44.211845 91.326538,43.111938 90.629402,42.023026 
	C89.842949,43.365433 89.435135,44.696842 89.027313,46.028248 
	C89.027313,46.028248 89.004478,46.004593 88.614761,46.010918 
	C84.161194,44.210243 80.082886,44.362614 75.982086,45.896935 
	C75.696564,46.003757 75.334702,45.906555 74.784241,45.670326 
	C73.915756,44.860085 73.271393,44.283749 72.627022,43.707413 
	C72.715446,43.318333 72.803871,42.929253 72.892296,42.540173 
	C77.426796,42.540173 81.961304,42.540173 86.495804,42.540173 
	C86.460945,42.142448 86.426086,41.744728 86.391220,41.347004 
	C80.876534,41.347004 75.361839,41.347004 69.908684,41.347004 
	C69.525589,43.234959 73.828499,46.791233 67.668915,45.804222 
	C66.915939,43.849606 67.488182,41.133968 63.848030,41.863289 
	C51.599514,41.513744 39.609241,41.513744 27.618967,41.513744 
	C27.612879,42.022346 27.606791,42.530952 27.600700,43.039555 
	C30.930292,43.039555 34.275772,42.849094 37.582355,43.124905 
	C39.094284,43.251022 40.529606,44.295540 41.685318,45.009029 
	C40.578175,45.405003 39.785393,45.715477 38.866886,45.751167 
	C36.975212,45.358780 35.048229,45.655243 33.474567,45.043224 
	C29.333220,43.432598 27.748627,45.396172 27.011368,49.017708 
z"/>
<path fill="#DA0202" opacity="1.000000" stroke="none" 
	d="
M229.954437,98.949203 
	C230.241333,98.836037 230.528214,98.722870 230.917145,99.164314 
	C231.031158,103.010635 233.188751,103.233421 235.667480,103.427124 
	C236.009720,108.194778 239.122086,105.594795 241.274460,106.016144 
	C241.519257,106.014015 242.009125,105.991653 242.292664,105.998215 
	C242.756149,105.559525 242.936066,105.114273 243.458466,104.490074 
	C245.198944,104.853477 246.596939,105.395836 248.385239,106.044861 
	C249.846802,106.096741 250.918060,106.041946 252.340759,105.844376 
	C252.502274,104.029091 252.312363,102.356567 252.172760,100.462708 
	C252.300522,99.932693 252.266907,99.636635 252.122223,99.353188 
	C253.188904,98.972557 254.255585,98.591927 255.661133,98.105652 
	C256.000000,114.313072 256.000000,130.626144 256.000000,146.939041 
	C170.999985,146.938858 85.999977,146.938858 1.000000,146.938858 
	C1.000000,130.897583 1.000000,114.917450 1.000000,98.468658 
	C1.883986,98.129974 2.767971,98.259956 3.911340,99.020317 
	C3.352142,103.099388 5.738220,103.061401 8.044073,103.465706 
	C8.718527,104.174324 9.343124,104.582184 10.059919,105.393349 
	C11.976106,105.607651 13.800093,105.418640 15.756029,105.559715 
	C16.573864,106.215942 17.259750,106.542091 17.945637,106.868233 
	C18.029932,106.631218 18.114227,106.394196 18.198524,106.157173 
	C17.326595,105.855240 16.454668,105.553299 15.481812,104.768951 
	C15.587543,104.031120 15.794203,103.775688 16.369999,103.735184 
	C18.157082,103.948380 19.575024,103.946632 21.002415,104.326454 
	C22.324484,105.493790 23.637106,106.279549 24.949726,107.065308 
	C25.159157,106.602409 25.368586,106.139503 25.578014,105.676605 
	C24.993250,105.444435 24.408485,105.212265 23.894199,104.624077 
	C24.004835,103.543663 24.044991,102.819275 24.395256,102.018219 
	C25.071314,101.306259 25.437262,100.670952 25.868748,99.767807 
	C25.941084,99.316284 25.947878,99.132584 25.954674,98.948891 
	C26.241512,98.835922 26.528351,98.722954 26.916569,99.164703 
	C27.030163,103.009010 29.183624,103.236610 31.665428,103.426926 
	C32.009911,108.193840 35.122192,105.595238 37.276783,106.016464 
	C37.523251,106.014328 38.015385,105.985878 38.298065,105.994080 
	C38.759121,105.557884 38.937500,105.113487 39.463535,104.487640 
	C41.215416,104.922249 42.619648,105.538307 44.290825,106.439796 
	C47.242134,106.316681 49.926495,105.908127 53.503471,105.363724 
	C54.741814,107.768700 57.651321,108.028831 61.394974,105.970963 
	C62.499744,106.084023 63.253960,106.055176 64.138336,106.251831 
	C64.841766,106.343208 65.415031,106.209068 66.365295,106.119041 
	C67.493858,106.100891 68.245438,106.038628 69.328949,106.073486 
	C70.113297,106.117455 70.565704,106.064301 71.267151,106.019806 
	C71.516174,106.028465 72.012863,105.987717 72.362991,106.030876 
	C73.174545,105.417717 73.635979,104.761398 74.458107,104.058441 
	C75.877129,104.663254 76.935448,105.314690 78.401550,106.070435 
	C80.414253,105.859703 82.019173,105.544670 83.756027,105.559715 
	C84.573860,106.215942 85.259735,106.542091 85.945618,106.868240 
	C86.029915,106.631226 86.114212,106.394203 86.198517,106.157188 
	C85.326591,105.855247 84.454666,105.553299 83.481812,104.768951 
	C83.587547,104.031113 83.794205,103.775673 84.369995,103.735184 
	C86.157082,103.948380 87.575027,103.946625 89.002419,104.326447 
	C90.324486,105.493790 91.637108,106.279549 92.949738,107.065308 
	C93.159164,106.602409 93.368599,106.139503 93.578026,105.676605 
	C92.993256,105.444435 92.408493,105.212257 91.894165,104.622070 
	C92.003708,103.535683 92.042801,102.807312 92.424072,101.992561 
	C93.162300,100.920547 93.558334,99.934914 93.954369,98.949280 
	C94.241272,98.836136 94.528175,98.722984 94.916519,99.164635 
	C95.030144,103.009048 97.183655,103.236572 99.665421,103.426895 
	C100.009743,108.193573 103.121490,105.595650 105.274452,106.016144 
	C105.519249,106.014015 106.009117,105.991653 106.292664,105.998207 
	C106.756119,105.559517 106.936043,105.114281 107.463593,104.487602 
	C109.215263,104.922363 110.619301,105.538551 112.290482,106.440033 
	C115.226395,106.328667 117.895164,105.931999 120.563942,105.535339 
	C120.442245,105.215454 120.320549,104.895569 120.198853,104.575684 
	C122.420883,105.599815 124.642914,106.623947 127.167175,107.787384 
	C127.569229,105.158051 127.806496,103.606384 128.274551,102.043732 
	C128.505341,102.032745 128.962830,102.097855 128.983795,102.358604 
	C129.025711,102.793205 129.046677,102.967049 129.047943,103.532745 
	C130.021561,104.625175 131.014862,105.325752 132.138336,106.251846 
	C132.841721,106.343178 133.414948,106.209000 134.365158,106.118988 
	C135.493774,106.100883 136.245407,106.038620 137.328278,106.077965 
	C138.111954,106.123138 138.564346,106.066711 139.264465,106.011681 
	C139.512161,106.013077 140.007599,105.992882 140.358398,106.034256 
	C141.171921,105.418777 141.634659,104.761932 142.458069,104.058449 
	C143.877106,104.663254 144.935455,105.314690 146.401581,106.070419 
	C148.414276,105.859695 150.019165,105.544670 151.756012,105.559723 
	C152.573853,106.215950 153.259735,106.542091 153.945618,106.868233 
	C154.029907,106.631218 154.114212,106.394203 154.198517,106.157188 
	C153.326599,105.855247 152.454666,105.553307 151.481812,104.768967 
	C151.587555,104.031128 151.794220,103.775696 152.370026,103.735199 
	C154.157089,103.948380 155.575043,103.946632 157.002426,104.326462 
	C158.324478,105.493797 159.637070,106.279549 160.949677,107.065308 
	C161.159103,106.602409 161.368546,106.139511 161.577972,105.676613 
	C160.993210,105.444443 160.408447,105.212280 159.894135,104.622086 
	C160.003693,103.535690 160.042786,102.807320 160.424072,101.992554 
	C161.162323,100.920517 161.558380,99.934860 161.954437,98.949203 
	C162.241318,98.836075 162.528183,98.722954 162.916504,99.164612 
	C163.030121,103.009041 165.183609,103.236595 167.665421,103.426888 
	C168.009735,108.193588 171.121490,105.595642 173.274460,106.016144 
	C173.519257,106.014015 174.009125,105.991653 174.292664,105.998199 
	C174.756134,105.559509 174.936066,105.114265 175.463623,104.487579 
	C177.215469,104.922218 178.619659,105.538300 180.290802,106.439796 
	C183.242081,106.316704 185.926407,105.908180 189.592987,105.350174 
	C190.842300,107.256874 193.557327,108.506287 197.395554,105.968735 
	C198.500595,106.080956 199.254379,106.053642 200.138474,106.251480 
	C200.840240,106.341530 201.411713,106.206421 202.360748,106.112885 
	C203.491318,106.095070 204.244293,106.035698 205.328491,106.077866 
	C206.112076,106.123024 206.564407,106.066658 207.264465,106.011688 
	C207.512161,106.013077 208.007599,105.992882 208.358398,106.034256 
	C209.171921,105.418777 209.634659,104.761925 210.458069,104.058449 
	C211.877106,104.663254 212.935455,105.314690 214.401581,106.070427 
	C216.414276,105.859695 218.019165,105.544670 219.756012,105.559723 
	C220.573853,106.215942 221.259735,106.542084 221.945618,106.868233 
	C222.029907,106.631218 222.114212,106.394203 222.198517,106.157196 
	C221.326584,105.855255 220.454666,105.553314 219.474243,104.753815 
	C219.556686,103.975548 219.747635,103.694839 220.292786,103.674034 
	C222.095749,103.937538 223.544495,103.941139 225.002609,104.326324 
	C226.324509,105.493721 227.637070,106.279533 228.949631,107.065338 
	C229.159073,106.602440 229.368530,106.139534 229.577988,105.676628 
	C228.993225,105.444458 228.408447,105.212288 227.894135,104.622093 
	C228.003693,103.535690 228.042786,102.807320 228.424072,101.992561 
	C229.162323,100.920525 229.558380,99.934868 229.954437,98.949203 
M75.620560,106.520012 
	C75.620560,106.520012 75.430473,106.414909 75.430473,106.414909 
	C75.430473,106.414909 75.459641,106.622818 75.620560,106.520012 
M143.465225,106.627327 
	C143.465225,106.627327 143.568893,106.444389 143.568893,106.444389 
	C143.568893,106.444389 143.353882,106.472000 143.465225,106.627327 
M233.157150,105.528145 
	C233.341858,105.600594 233.526566,105.673042 233.711273,105.745491 
	C233.662140,105.569939 233.613007,105.394394 233.157150,105.528145 
M165.920380,105.560837 
	C165.731873,105.500648 165.543365,105.440460 165.354858,105.380280 
	C165.414871,105.551750 165.474899,105.723213 165.920380,105.560837 
M97.920372,105.560829 
	C97.731857,105.500648 97.543350,105.440468 97.354843,105.380287 
	C97.414879,105.551750 97.474907,105.723213 97.920372,105.560829 
M211.465225,106.627327 
	C211.465225,106.627327 211.568893,106.444389 211.568893,106.444389 
	C211.568893,106.444389 211.353882,106.472000 211.465225,106.627327 
M29.527586,105.895966 
	C29.597679,105.728264 29.667770,105.560555 29.737864,105.392853 
	C29.545919,105.441841 29.353975,105.490822 29.527586,105.895966 
z"/>
<path fill="#DD1818" opacity="1.000000" stroke="none" 
	d="
M136.973297,66.622299 
	C137.590118,66.405479 138.632370,66.418205 138.859894,66.855164 
	C141.540649,72.003586 140.212357,79.917534 136.007874,84.562141 
	C133.735855,87.071983 131.465729,89.583542 129.279068,92.001114 
	C119.106346,84.799103 112.836601,75.206467 119.585472,64.919823 
	C119.756989,68.756439 119.357300,72.339043 120.223549,75.583672 
	C121.049095,78.675865 123.195137,81.415520 125.401932,84.062294 
	C128.025513,75.706924 123.603493,66.922684 128.587845,58.256054 
	C133.093140,66.989449 129.313187,75.562126 130.654724,83.745430 
	C136.080612,81.187645 138.165146,75.504929 136.973297,66.622299 
M130.639084,84.046692 
	C130.580383,84.250397 130.521683,84.454102 130.462982,84.657806 
	C130.655212,84.584923 130.847458,84.512039 130.639084,84.046692 
M126.345665,84.853210 
	C126.410721,84.651695 126.475777,84.450172 126.540840,84.248650 
	C126.347054,84.315346 126.153275,84.382034 126.345665,84.853210 
z"/>
<path fill="#39A953" opacity="1.000000" stroke="none" 
	d="
M41.999672,44.923531 
	C40.529606,44.295540 39.094284,43.251022 37.582355,43.124905 
	C34.275772,42.849094 30.930292,43.039555 27.600700,43.039555 
	C27.606791,42.530952 27.612879,42.022346 27.618967,41.513744 
	C39.609241,41.513744 51.599514,41.513744 64.029739,42.073578 
	C64.645355,43.755543 64.821022,44.877670 64.723297,45.998718 
	C64.268646,46.016567 64.087372,46.035496 63.906101,46.054424 
	C62.694168,47.113731 61.482231,48.173035 60.588699,48.954037 
	C58.006229,47.991444 55.515644,47.063103 52.315941,46.051262 
	C49.968513,44.760654 48.570259,43.067841 46.349228,45.529003 
	C45.798847,46.138893 43.496624,45.167862 41.999672,44.923531 
z"/>
<path fill="#39A953" opacity="1.000000" stroke="none" 
	d="
M109.999672,44.923531 
	C108.529610,44.295540 107.094185,43.250462 105.582405,43.124939 
	C102.265030,42.849480 98.908989,43.039555 95.568741,43.039555 
	C95.585487,42.530903 95.602242,42.022251 95.618988,41.513599 
	C107.609238,41.513599 119.599480,41.513599 132.029663,42.073456 
	C132.645325,43.755474 132.821014,44.877636 132.723328,45.998718 
	C132.268661,46.016575 132.087387,46.035503 131.906113,46.054428 
	C130.694168,47.113724 129.482239,48.173027 128.588699,48.954033 
	C126.006241,47.991447 123.515656,47.063107 120.315941,46.051270 
	C117.968513,44.760639 116.570259,43.067844 114.349220,45.528999 
	C113.798836,46.138885 111.496628,45.167862 109.999672,44.923531 
z"/>
<path fill="#39A953" opacity="1.000000" stroke="none" 
	d="
M177.999664,44.923523 
	C176.529602,44.295536 175.094177,43.250462 173.582382,43.124935 
	C170.265030,42.849480 166.909027,43.039555 163.568802,43.039555 
	C163.585510,42.530945 163.602219,42.022339 163.618927,41.513729 
	C175.609207,41.513729 187.599487,41.513729 200.029724,42.073570 
	C200.645370,43.755539 200.821045,44.877666 200.723328,45.998718 
	C200.268661,46.016575 200.087387,46.035503 199.906113,46.054428 
	C198.694168,47.113735 197.482239,48.173042 196.588715,48.954025 
	C194.006210,47.991432 191.515610,47.063103 188.315887,46.051270 
	C185.968475,44.760590 184.570236,43.067871 182.349213,45.529003 
	C181.798828,46.138893 179.496613,45.167854 177.999664,44.923523 
z"/>
<path fill="#75C387" opacity="1.000000" stroke="none" 
	d="
M231.471878,48.996517 
	C231.779388,45.416492 233.284149,43.951694 237.519745,44.973724 
	C241.713272,45.985611 246.278580,45.376663 250.647675,45.811703 
	C251.472900,45.893871 252.142624,47.537971 252.868134,48.818520 
	C245.875580,49.104958 238.898987,49.034229 231.471878,48.996517 
z"/>
<path fill="#E13131" opacity="1.000000" stroke="none" 
	d="
M128.043762,102.054718 
	C127.806496,103.606384 127.569229,105.158051 127.167175,107.787384 
	C124.642914,106.623947 122.420883,105.599815 120.198853,104.575684 
	C120.320549,104.895569 120.442245,105.215454 120.563942,105.535339 
	C117.895164,105.931999 115.226395,106.328667 112.308929,106.139381 
	C112.106789,105.358109 112.153343,105.162773 112.396469,104.961235 
	C112.593040,104.955040 112.983238,105.004677 113.318970,104.887115 
	C113.450775,103.542648 113.246841,102.315750 113.011482,100.893600 
	C112.980057,100.698341 112.996490,100.303139 113.045769,100.075455 
	C113.095047,99.847763 113.115227,99.382294 113.115227,99.382294 
	C114.597267,99.103462 116.079308,98.824623 117.804939,99.177704 
	C119.080093,100.522278 120.042381,101.680435 121.157799,101.853912 
	C123.409081,102.204025 125.743584,102.019012 128.043762,102.054718 
z"/>
<path fill="#E13131" opacity="1.000000" stroke="none" 
	d="
M197.044296,105.829201 
	C193.557327,108.506287 190.842300,107.256874 189.592987,105.350174 
	C185.926407,105.908180 183.242081,106.316704 180.308990,106.139473 
	C180.106842,105.358643 180.153473,105.163559 180.396606,104.961716 
	C180.593140,104.954964 180.983246,105.004707 181.341583,104.850433 
	C181.666534,103.432938 181.633118,102.169724 181.599701,100.906509 
	C182.928223,100.123817 184.256729,99.341133 185.816940,99.184265 
	C187.080109,100.522591 188.042313,101.680450 189.157654,101.853943 
	C191.408569,102.204048 193.742691,102.019150 195.992813,102.342850 
	C196.267944,103.413033 196.592758,104.195290 197.000778,105.182793 
	C197.083984,105.388039 197.044296,105.829201 197.044296,105.829201 
z"/>
<path fill="#E13131" opacity="1.000000" stroke="none" 
	d="
M61.044411,105.829048 
	C57.651321,108.028831 54.741814,107.768700 53.503471,105.363724 
	C49.926495,105.908127 47.242134,106.316681 44.308998,106.139481 
	C44.106842,105.358643 44.153473,105.163559 44.396610,104.961731 
	C44.593121,104.954971 44.983219,105.004700 45.341576,104.850433 
	C45.666557,103.432945 45.633183,102.169724 45.599815,100.906509 
	C46.928307,100.123833 48.256794,99.341156 49.816948,99.184296 
	C51.080097,100.522606 52.042316,101.680458 53.157646,101.853943 
	C55.408554,102.204048 57.742676,102.019150 59.992794,102.342850 
	C60.267925,103.413040 60.592739,104.195297 61.001785,105.182602 
	C61.086014,105.387657 61.044411,105.829048 61.044411,105.829048 
z"/>
<path fill="#DF2323" opacity="1.000000" stroke="none" 
	d="
M113.849167,73.305107 
	C114.160217,76.993851 114.509758,80.249275 114.851639,83.433357 
	C107.765572,78.441528 108.787224,67.537300 117.403580,62.304253 
	C116.141426,66.097809 115.014534,69.484795 113.849167,73.305107 
z"/>
<path fill="#DF2222" opacity="1.000000" stroke="none" 
	d="
M146.558105,71.612793 
	C147.088943,76.818130 145.942917,80.995911 140.846542,85.152786 
	C144.313293,76.701904 143.940704,69.751076 139.173309,63.135464 
	C143.386993,63.863575 144.607452,65.296532 146.558105,71.612793 
z"/>
<path fill="#63BB77" opacity="1.000000" stroke="none" 
	d="
M199.988327,46.419533 
	C200.087387,46.035503 200.268661,46.016575 201.003799,46.156158 
	C202.366623,46.213787 203.175583,46.112892 203.984543,46.011997 
	C209.828491,46.791267 205.525665,43.235012 205.908661,41.347000 
	C211.361816,41.347000 216.876511,41.347000 222.391205,41.347000 
	C222.426071,41.744720 222.460922,42.142441 222.495789,42.540161 
	C217.961288,42.540161 213.426788,42.540161 208.892288,42.540161 
	C208.803848,42.929241 208.715424,43.318321 208.626999,43.707397 
	C209.271362,44.283741 209.915741,44.860081 210.956360,46.235733 
	C211.558960,47.370350 211.765335,47.705662 211.971695,48.040970 
	C207.764191,49.900059 203.737610,50.045128 199.988327,46.419533 
z"/>
<path fill="#63BB77" opacity="1.000000" stroke="none" 
	d="
M131.988281,46.419388 
	C132.087387,46.035503 132.268661,46.016575 133.003784,46.156136 
	C134.366730,46.213615 135.175827,46.112602 136.284271,46.082802 
	C137.332397,45.831047 138.081192,45.508080 138.829987,45.185104 
	C138.268600,44.406231 137.707199,43.627361 137.129684,42.563942 
	C137.130814,41.902637 137.148056,41.525887 137.165314,41.149132 
	C142.912476,41.149132 148.659637,41.149132 154.406784,41.149132 
	C154.434692,41.615433 154.462585,42.081734 154.490494,42.548035 
	C149.957550,42.548035 145.424622,42.548035 140.891678,42.548035 
	C140.803421,42.934998 140.715149,43.321960 140.626892,43.708923 
	C141.271500,44.284981 141.916107,44.861038 142.898743,46.096737 
	C143.414352,46.989971 143.591934,47.223560 143.769516,47.457150 
	C139.667679,50.747887 135.818207,49.650589 131.988281,46.419388 
z"/>
<path fill="#63BB77" opacity="1.000000" stroke="none" 
	d="
M63.988327,46.419525 
	C64.087372,46.035496 64.268646,46.016567 65.003784,46.156151 
	C66.366623,46.213779 67.175591,46.112888 67.984566,46.011997 
	C73.828499,46.791233 69.525589,43.234959 69.908684,41.347004 
	C75.361839,41.347004 80.876534,41.347004 86.391220,41.347004 
	C86.426086,41.744728 86.460945,42.142448 86.495804,42.540173 
	C81.961304,42.540173 77.426796,42.540173 72.892296,42.540173 
	C72.803871,42.929253 72.715446,43.318333 72.627022,43.707413 
	C73.271393,44.283749 73.915756,44.860085 74.956360,46.235733 
	C75.558960,47.370350 75.765320,47.705658 75.971687,48.040966 
	C71.764183,49.900040 67.737602,50.045151 63.988327,46.419525 
z"/>
<path fill="#E96868" opacity="1.000000" stroke="none" 
	d="
M235.680679,102.977997 
	C233.188751,103.233421 231.031158,103.010635 231.027863,99.337723 
	C236.737595,99.009377 242.438675,99.062233 248.588104,99.445610 
	C249.036484,99.776131 248.974380,100.215027 248.715729,100.238365 
	C248.267456,100.546364 248.077850,100.831024 247.571976,101.278244 
	C245.878693,101.990547 244.501663,102.540298 242.846375,103.056862 
	C242.381470,103.015907 242.194824,103.008125 241.730820,103.003387 
	C241.268646,103.012100 241.083832,103.017776 240.573120,103.017952 
	C239.540131,103.305847 238.833054,103.599236 237.861633,103.944679 
	C237.418503,104.014343 237.239731,104.031952 236.890717,103.805664 
	C236.373856,103.367180 236.027267,103.172592 235.680679,102.977997 
z"/>
<path fill="#E96868" opacity="1.000000" stroke="none" 
	d="
M112.653488,99.255005 
	C113.115227,99.382294 113.095047,99.847763 112.786224,100.062737 
	C112.281265,100.556984 112.085129,100.836266 111.572212,101.277328 
	C109.878059,101.989220 108.500687,102.539314 106.845184,103.056198 
	C106.380463,103.015442 106.193878,103.007889 105.730515,103.003418 
	C105.269287,103.012070 105.084839,103.017647 104.574142,103.017326 
	C103.540520,103.305382 102.833145,103.599342 101.861694,103.945457 
	C101.419044,104.015076 101.240456,104.032539 100.891449,103.805290 
	C100.373123,103.366295 100.025208,103.172005 99.677299,102.977707 
	C97.183655,103.236572 95.030144,103.009048 95.026924,99.338272 
	C100.754509,99.013977 106.473129,99.070847 112.653488,99.255005 
z"/>
<path fill="#E96868" opacity="1.000000" stroke="none" 
	d="
M31.677299,102.977707 
	C29.183624,103.236610 27.030163,103.009010 27.026924,99.338257 
	C32.449486,99.017891 37.863068,99.078690 43.639137,99.721710 
	C43.966728,100.579460 43.931824,100.854973 43.577164,101.285652 
	C41.879375,101.990349 40.501343,102.539886 38.848385,103.056046 
	C38.389023,103.015488 38.204590,103.008301 37.740154,103.003784 
	C37.273567,103.012054 37.086975,103.017647 36.574142,103.017319 
	C35.540516,103.305374 34.833138,103.599335 33.861702,103.945450 
	C33.419052,104.015060 33.240463,104.032516 32.891449,103.805283 
	C32.373116,103.366287 32.025208,103.171997 31.677299,102.977707 
z"/>
<path fill="#E96868" opacity="1.000000" stroke="none" 
	d="
M167.677292,102.977699 
	C165.183609,103.236595 163.030121,103.009041 163.026901,99.338226 
	C168.449448,99.017876 173.863052,99.078682 179.639130,99.721725 
	C179.966721,100.579475 179.931824,100.855003 179.577179,101.285660 
	C177.879379,101.990341 176.501343,102.539886 174.845184,103.056213 
	C174.380463,103.015442 174.193878,103.007889 173.730515,103.003418 
	C173.269287,103.012070 173.084839,103.017647 172.574127,103.017319 
	C171.540497,103.305367 170.833115,103.599327 169.861694,103.945442 
	C169.419052,104.015060 169.240463,104.032516 168.891449,103.805275 
	C168.373108,103.366280 168.025208,103.171989 167.677292,102.977699 
z"/>
<path fill="#80C891" opacity="1.000000" stroke="none" 
	d="
M6.228804,45.948563 
	C10.903536,44.098537 15.568095,44.221840 20.623821,46.023117 
	C18.609991,47.088982 16.283352,48.625122 13.759476,49.089661 
	C10.953032,49.606205 7.966872,49.146336 4.619901,49.149185 
	C4.177254,48.671810 4.173657,48.156796 4.450621,47.157726 
	C5.230389,46.431965 5.729596,46.190262 6.228804,45.948563 
z"/>
<path fill="#E96B6B" opacity="1.000000" stroke="none" 
	d="
M7.994215,103.164948 
	C5.738220,103.061401 3.352142,103.099388 4.172216,99.233620 
	C8.805811,98.906090 13.437913,98.995651 18.539185,99.370117 
	C19.008354,99.655029 19.024683,100.086197 18.935453,100.470993 
	C16.223396,101.270805 13.600569,101.685837 10.664000,102.168335 
	C9.564910,102.545517 8.779562,102.855232 7.994215,103.164948 
z"/>
<path fill="#6EC081" opacity="1.000000" stroke="none" 
	d="
M27.458221,48.979271 
	C27.748627,45.396172 29.333220,43.432598 33.474567,45.043224 
	C35.048229,45.655243 36.975212,45.358780 38.870102,46.110321 
	C38.988808,47.463303 38.978577,48.182346 38.968346,48.901390 
	C35.280590,48.914539 31.592833,48.927689 27.458221,48.979271 
z"/>
<path fill="#6EC081" opacity="1.000000" stroke="none" 
	d="
M95.458214,48.979275 
	C95.748604,45.396156 97.333237,43.432644 101.474564,45.043232 
	C103.048225,45.655243 104.975212,45.358784 106.870102,46.110321 
	C106.988823,47.463299 106.978600,48.182339 106.968369,48.901382 
	C103.280602,48.914532 99.592834,48.927685 95.458214,48.979275 
z"/>
<path fill="#6EC081" opacity="1.000000" stroke="none" 
	d="
M163.458191,48.979279 
	C163.748642,45.396236 165.333191,43.432579 169.474564,45.043224 
	C171.048218,45.655239 172.975220,45.358772 174.870117,46.110313 
	C174.988815,47.463306 174.978577,48.182354 174.968323,48.901402 
	C171.280563,48.914547 167.592819,48.927692 163.458191,48.979279 
z"/>
<path fill="#72C285" opacity="1.000000" stroke="none" 
	d="
M39.415127,48.903778 
	C38.978577,48.182346 38.988808,47.463303 38.995827,46.385105 
	C39.785393,45.715477 40.578175,45.405003 41.685318,45.009029 
	C43.496624,45.167862 45.798847,46.138893 46.349228,45.529003 
	C48.570259,43.067841 49.968513,44.760654 51.946053,46.112278 
	C50.773392,47.217796 49.353489,48.745522 47.728413,49.009327 
	C45.179005,49.423176 42.491138,48.984047 39.415127,48.903778 
z"/>
<path fill="#72C285" opacity="1.000000" stroke="none" 
	d="
M107.415146,48.903770 
	C106.978600,48.182339 106.988823,47.463299 106.995834,46.385101 
	C107.785400,45.715477 108.578178,45.405003 109.685318,45.009033 
	C111.496628,45.167862 113.798836,46.138885 114.349220,45.528999 
	C116.570259,43.067844 117.968513,44.760639 119.946060,46.112282 
	C118.773399,47.217804 117.353493,48.745525 115.728409,49.009327 
	C113.179008,49.423172 110.491150,48.984047 107.415146,48.903770 
z"/>
<path fill="#72C285" opacity="1.000000" stroke="none" 
	d="
M175.415100,48.903782 
	C174.978577,48.182354 174.988815,47.463306 174.995834,46.385101 
	C175.785400,45.715473 176.578171,45.404995 177.685303,45.009022 
	C179.496613,45.167854 181.798828,46.138893 182.349213,45.529003 
	C184.570236,43.067871 185.968475,44.760590 187.946014,46.112289 
	C186.773346,47.217808 185.353455,48.745510 183.728378,49.009315 
	C181.178970,49.423164 178.491104,48.984047 175.415100,48.903782 
z"/>
<path fill="#7FC790" opacity="1.000000" stroke="none" 
	d="
M76.157745,48.165897 
	C75.765320,47.705658 75.558960,47.370350 75.180466,46.469639 
	C75.334702,45.906555 75.696564,46.003757 75.982086,45.896935 
	C80.082886,44.362614 84.161194,44.210243 88.623566,46.020409 
	C85.646233,51.533791 80.817429,48.919231 76.157745,48.165897 
z"/>
<path fill="#7FC790" opacity="1.000000" stroke="none" 
	d="
M212.157745,48.165901 
	C211.765335,47.705662 211.558960,47.370350 211.180466,46.469643 
	C211.334686,45.906563 211.696533,46.003750 211.982056,45.896927 
	C216.082870,44.362610 220.161194,44.210255 224.623566,46.020409 
	C221.646225,51.533806 216.817429,48.919209 212.157745,48.165901 
z"/>
<path fill="#7FC790" opacity="1.000000" stroke="none" 
	d="
M144.506302,48.202065 
	C146.814941,45.062046 149.248474,42.465271 153.333618,45.602955 
	C154.006454,46.119743 155.246704,45.897789 156.623383,46.020409 
	C153.801102,51.509518 148.993927,48.891121 144.506302,48.202065 
z"/>
<path fill="#E96868" opacity="1.000000" stroke="none" 
	d="
M128.274551,102.043732 
	C125.743584,102.019012 123.409081,102.204025 121.157799,101.853912 
	C120.042381,101.680435 119.080093,100.522278 118.028244,99.398010 
	C122.361641,99.020531 126.715309,99.054665 131.531219,99.484451 
	C132.000320,100.534576 132.007187,101.189049 131.635559,101.906174 
	C130.492325,102.011826 129.727570,102.054840 128.962830,102.097855 
	C128.962830,102.097855 128.505341,102.032745 128.274551,102.043732 
z"/>
<path fill="#E96868" opacity="1.000000" stroke="none" 
	d="
M60.042477,102.054932 
	C57.742676,102.019150 55.408554,102.204048 53.157646,101.853943 
	C52.042316,101.680458 51.080097,100.522606 50.028290,99.398254 
	C54.361633,99.020538 58.715290,99.054665 63.531204,99.484451 
	C64.000313,100.534576 64.007179,101.189049 63.635551,101.906174 
	C62.492321,102.011826 61.727570,102.054840 60.733753,102.065308 
	C60.504684,102.032753 60.042477,102.054932 60.042477,102.054932 
z"/>
<path fill="#E96868" opacity="1.000000" stroke="none" 
	d="
M196.042496,102.054932 
	C193.742691,102.019150 191.408569,102.204048 189.157654,101.853943 
	C188.042313,101.680450 187.080109,100.522591 186.028290,99.398232 
	C190.361664,99.020462 194.715378,99.054535 199.531464,99.483788 
	C200.000580,100.533813 200.007324,101.188675 199.635559,101.906174 
	C198.492325,102.011826 197.727570,102.054840 196.733765,102.065308 
	C196.504684,102.032761 196.042496,102.054932 196.042496,102.054932 
z"/>
<path fill="#EA6F6F" opacity="1.000000" stroke="none" 
	d="
M93.514587,98.971237 
	C93.558334,99.934914 93.162300,100.920547 92.232315,101.813568 
	C91.740158,102.807335 91.781937,103.893707 91.823723,104.980087 
	C92.408493,105.212257 92.993256,105.444435 93.578026,105.676605 
	C93.368599,106.139503 93.159164,106.602409 92.949738,107.065308 
	C91.637108,106.279549 90.324486,105.493790 88.930138,104.027542 
	C88.525848,103.140205 88.203293,102.933357 87.884094,102.491150 
	C87.887459,102.255791 88.127464,101.850800 88.235413,101.804985 
	C88.343353,101.759171 88.455879,101.507179 88.455879,101.507179 
	C88.455879,101.507179 88.224564,101.247017 88.084145,100.993286 
	C87.654045,100.505623 87.364365,100.271690 86.863937,99.953568 
	C86.379501,99.717331 86.174286,99.500465 86.037560,99.218796 
	C88.383308,99.143593 90.729050,99.068382 93.514587,98.971237 
z"/>
<path fill="#EA6F6F" opacity="1.000000" stroke="none" 
	d="
M159.823685,104.980110 
	C160.408447,105.212280 160.993210,105.444443 161.577972,105.676613 
	C161.368546,106.139511 161.159103,106.602409 160.949677,107.065308 
	C159.637070,106.279549 158.324478,105.493797 156.930145,104.027557 
	C156.525848,103.140213 156.203278,102.933365 155.884094,102.491150 
	C155.887466,102.255798 156.127472,101.850807 156.235413,101.804977 
	C156.343369,101.759155 156.455887,101.507164 156.455887,101.507164 
	C156.455887,101.507164 156.224564,101.246986 156.084152,100.993263 
	C155.654068,100.505615 155.364410,100.271690 154.863983,99.953575 
	C154.379486,99.717339 154.174255,99.500473 154.037506,99.218796 
	C156.383301,99.143570 158.729111,99.068344 161.514679,98.971161 
	C161.558380,99.934860 161.162323,100.920517 160.232300,101.813576 
	C159.740128,102.807358 159.781906,103.893730 159.823685,104.980110 
z"/>
<path fill="#EA6F6F" opacity="1.000000" stroke="none" 
	d="
M227.823700,104.980118 
	C228.408447,105.212288 228.993225,105.444458 229.577988,105.676628 
	C229.368530,106.139534 229.159073,106.602440 228.949631,107.065338 
	C227.637070,106.279533 226.324509,105.493721 224.930176,104.023323 
	C224.529129,103.132057 224.209854,102.925385 223.890259,102.485489 
	C223.889954,102.252258 224.127472,101.850807 224.235413,101.804977 
	C224.343369,101.759155 224.455887,101.507164 224.455887,101.507164 
	C224.455887,101.507164 224.224564,101.246986 224.130981,100.797836 
	C224.014038,100.043709 223.990692,99.738731 223.967331,99.433762 
	C225.707718,99.285324 227.448105,99.136887 229.571472,98.968826 
	C229.558380,99.934868 229.162323,100.920525 228.232330,101.813583 
	C227.740143,102.807358 227.781921,103.893730 227.823700,104.980118 
z"/>
<path fill="#EA6F6F" opacity="1.000000" stroke="none" 
	d="
M19.024685,100.086197 
	C19.024683,100.086197 19.008354,99.655029 19.000957,99.439484 
	C21.023930,99.146851 23.054298,99.069763 25.519669,98.970779 
	C25.947878,99.132584 25.941084,99.316284 25.635822,99.885117 
	C24.877501,100.520027 24.417648,100.769783 23.685980,101.204727 
	C23.550682,102.586639 23.687201,103.783371 23.823719,104.980095 
	C24.408485,105.212265 24.993250,105.444435 25.578014,105.676605 
	C25.368586,106.139503 25.159157,106.602409 24.949726,107.065308 
	C23.637106,106.279549 22.324484,105.493790 20.930138,104.027557 
	C20.525848,103.140221 20.203283,102.933365 19.884087,102.491150 
	C19.887457,102.255791 20.127457,101.850792 20.235407,101.804977 
	C20.343357,101.759171 20.455879,101.507179 20.455879,101.507179 
	C20.455879,101.507179 20.224569,101.247002 20.081116,100.991180 
	C19.633337,100.518974 19.329012,100.302582 19.024685,100.086197 
z"/>
<path fill="#EA6D6D" opacity="1.000000" stroke="none" 
	d="
M153.692169,99.153999 
	C154.174255,99.500473 154.379486,99.717339 154.802155,100.220596 
	C154.918518,100.751656 154.885956,100.931511 154.400024,101.080345 
	C149.646667,101.073563 145.346664,101.097801 141.118317,100.866379 
	C141.448166,100.146873 141.706375,99.683037 141.964584,99.219208 
	C144.345856,99.157364 146.727112,99.095520 149.686462,99.237297 
	C150.827515,99.366875 151.390488,99.292824 151.953461,99.218773 
	C152.417908,99.175583 152.882370,99.132393 153.692169,99.153999 
z"/>
<path fill="#EA6D6D" opacity="1.000000" stroke="none" 
	d="
M85.691315,99.153992 
	C86.174286,99.500465 86.379501,99.717331 86.802139,100.220581 
	C86.918518,100.751640 86.885941,100.931496 86.400009,101.080330 
	C81.646698,101.073540 77.346748,101.097771 73.118408,100.866325 
	C73.448219,100.146828 73.706436,99.683014 73.964645,99.219193 
	C76.036034,99.173088 78.107422,99.126984 80.809998,99.355774 
	C82.276855,99.493332 83.112511,99.355980 83.948174,99.218628 
	C84.413811,99.175484 84.879440,99.132339 85.691315,99.153992 
z"/>
<path fill="#FEF8F8" opacity="1.000000" stroke="none" 
	d="
M197.395554,105.968735 
	C197.044296,105.829201 197.083984,105.388039 197.048004,104.878838 
	C197.030579,103.960014 197.049149,103.550385 197.451141,103.080429 
	C198.870010,102.999962 199.905441,102.979828 201.231476,103.024750 
	C201.918015,103.092072 202.313980,103.094345 202.773117,103.458664 
	C203.209839,103.782509 203.866913,103.832352 203.910614,103.691711 
	C204.182022,102.817749 204.315872,101.901070 204.495346,100.998558 
	C204.495346,100.998558 204.522781,100.985199 204.741760,101.332657 
	C204.992264,102.743416 205.023788,103.806709 205.034119,105.146240 
	C205.007706,105.607094 205.002487,105.791710 204.997269,105.976334 
	C204.244293,106.035698 203.491318,106.095070 202.315170,105.748878 
	C200.865631,104.830956 199.839264,104.318588 198.812881,103.806221 
	C198.696457,104.062927 198.580032,104.319641 198.463608,104.576347 
	C198.978455,105.059677 199.493301,105.543007 200.008163,106.026337 
	C199.254379,106.053642 198.500595,106.080956 197.395554,105.968735 
z"/>
<path fill="#F5BDBD" opacity="1.000000" stroke="none" 
	d="
M217.554260,100.981667 
	C217.554260,100.981667 217.498398,101.007576 217.922913,101.008362 
	C219.850525,101.045235 221.353607,101.081329 222.666046,101.472519 
	C219.978683,101.934662 217.481995,102.041718 214.743973,102.088318 
	C214.502655,102.027863 214.020996,102.151588 213.612518,102.093246 
	C211.832474,101.978775 210.460922,101.922646 209.063843,101.682014 
	C209.038315,101.497513 209.032578,101.125046 209.496552,101.089493 
	C212.491760,101.029846 215.023010,101.005753 217.554260,100.981667 
z"/>
<path fill="#EA6D6D" opacity="1.000000" stroke="none" 
	d="
M217.540207,100.517746 
	C215.023010,101.005753 212.491760,101.029846 209.568695,100.831436 
	C209.439835,100.145691 209.702774,99.682442 209.965698,99.219193 
	C212.485855,99.497406 215.006012,99.775620 217.540207,100.517746 
z"/>
<path fill="#EA6F6F" opacity="1.000000" stroke="none" 
	d="
M141.656876,99.092491 
	C141.706375,99.683037 141.448166,100.146873 141.115921,101.053101 
	C141.041885,101.495491 141.090378,101.866943 140.799484,102.004356 
	C140.330963,102.515152 140.153320,102.888535 139.996384,103.447800 
	C140.017090,103.633682 139.993317,104.006996 139.756027,103.995621 
	C139.518738,103.984253 139.044846,104.018051 138.973999,103.626930 
	C138.775909,102.455978 138.648651,101.676140 138.521393,100.896309 
	C139.463989,100.252800 140.406570,99.609291 141.656876,99.092491 
z"/>
<path fill="#DE1A1A" opacity="1.000000" stroke="none" 
	d="
M214.985291,102.148773 
	C217.481995,102.041718 219.978683,101.934662 222.635925,101.036819 
	C222.679214,99.979561 222.561996,99.713081 222.444763,99.446602 
	C222.698380,99.427193 222.951981,99.407776 223.586456,99.411057 
	C223.990692,99.738731 224.014038,100.043709 224.114655,100.950066 
	C224.191925,101.551445 224.127472,101.850807 224.127472,101.850807 
	C224.127472,101.850807 223.889954,102.252258 223.505188,102.603271 
	C222.089706,103.135681 221.058960,103.317070 219.679123,103.635887 
	C218.870865,103.597153 218.411713,103.420990 217.610413,103.117111 
	C216.542648,103.048042 215.817032,103.106689 215.056335,102.912086 
	C215.009277,102.488815 214.997284,102.318787 214.985291,102.148773 
z"/>
<path fill="#EA6F6F" opacity="1.000000" stroke="none" 
	d="
M209.657898,99.092606 
	C209.702774,99.682442 209.439835,100.145691 209.104736,100.866989 
	C209.032578,101.125046 209.038315,101.497513 208.773163,101.819687 
	C208.330597,102.515190 208.153183,102.888519 207.996460,103.447746 
	C208.017120,103.633652 207.993317,104.006996 207.756027,103.995621 
	C207.518738,103.984253 207.044846,104.018051 206.974365,103.627106 
	C206.778854,102.456085 206.653809,101.676025 206.528778,100.895950 
	C207.469208,100.252640 208.409653,99.609322 209.657898,99.092606 
z"/>
<path fill="#E44545" opacity="1.000000" stroke="none" 
	d="
M248.974380,100.215027 
	C248.974380,100.215027 249.036484,99.776131 249.049393,99.554909 
	C249.829376,99.295479 250.596466,99.257271 251.742889,99.286125 
	C252.266907,99.636635 252.300522,99.932693 251.900375,100.726311 
	C251.355972,102.426521 251.134277,103.641792 250.726624,104.895592 
	C250.540665,104.934128 250.161758,104.908005 250.121002,104.550690 
	C249.744308,103.168373 249.408371,102.143364 249.032013,100.894257 
	C248.991592,100.670151 248.974380,100.215027 248.974380,100.215027 
z"/>
<path fill="#DF1E1E" opacity="1.000000" stroke="none" 
	d="
M67.173676,99.413231 
	C67.690117,99.417618 68.206566,99.422005 68.891808,99.930283 
	C69.036575,100.632248 69.012543,100.830338 68.618027,101.125206 
	C67.488770,102.295410 66.729988,103.368828 65.991608,104.473389 
	C66.011993,104.504517 66.066254,104.555450 66.360779,104.211960 
	C66.673325,103.567352 66.691330,103.266235 66.829376,102.756042 
	C66.926750,102.068268 66.904083,101.589592 66.931595,100.827744 
	C67.045738,100.167465 67.109711,99.790352 67.173676,99.413231 
z"/>
<path fill="#FBE2E2" opacity="1.000000" stroke="none" 
	d="
M71.018120,106.011139 
	C70.565704,106.064301 70.113297,106.117455 69.337479,105.797684 
	C69.028923,105.241394 69.043785,105.058044 69.423187,104.760788 
	C70.036339,103.428825 70.284950,102.210762 70.533569,100.992691 
	C70.533562,100.992691 70.488716,101.011360 70.693481,101.187660 
	C71.239342,101.403549 71.580421,101.443146 71.666840,101.999451 
	C71.590149,102.856651 71.768127,103.197136 71.976410,103.522125 
	C72.006714,103.506638 71.978439,103.444702 71.616241,103.582962 
	C71.175407,104.484535 71.096764,105.247841 71.018120,106.011139 
z"/>
<path fill="#EA6F6F" opacity="1.000000" stroke="none" 
	d="
M200.014069,101.843529 
	C200.007324,101.188675 200.000580,100.533813 199.990585,99.552734 
	C200.819565,99.190697 201.651779,99.154877 202.741699,99.696503 
	C202.960083,100.552940 202.920761,100.831932 202.669632,101.153168 
	C202.118210,101.448639 201.778580,101.701859 201.080551,101.955086 
	C200.486115,101.917900 200.250092,101.880714 200.014069,101.843529 
z"/>
<path fill="#82C993" opacity="1.000000" stroke="none" 
	d="
M21.342072,46.016548 
	C21.435123,44.696842 21.842936,43.365440 22.620260,42.407379 
	C22.961664,43.802624 22.933556,44.824524 22.905445,45.846428 
	C22.489239,45.899231 22.073034,45.952038 21.342072,46.016548 
z"/>
<path fill="#82C993" opacity="1.000000" stroke="none" 
	d="
M89.342072,46.016544 
	C89.435135,44.696842 89.842949,43.365433 90.620270,42.407368 
	C90.961662,43.802616 90.933548,44.824524 90.905441,45.846428 
	C90.489235,45.899235 90.073036,45.952038 89.342072,46.016544 
z"/>
<path fill="#82C993" opacity="1.000000" stroke="none" 
	d="
M157.342041,46.016548 
	C157.435089,44.696850 157.842911,43.365444 158.620239,42.407379 
	C158.961655,43.802628 158.933548,44.824532 158.905441,45.846436 
	C158.489227,45.899235 158.073013,45.952038 157.342041,46.016548 
z"/>
<path fill="#82C993" opacity="1.000000" stroke="none" 
	d="
M225.342041,46.016552 
	C225.435104,44.696854 225.842911,43.365444 226.620239,42.407379 
	C226.961655,43.802628 226.933548,44.824532 226.905441,45.846436 
	C226.489227,45.899239 226.073013,45.952042 225.342041,46.016552 
z"/>
<path fill="#EA6F6F" opacity="1.000000" stroke="none" 
	d="
M71.921509,101.482742 
	C71.580421,101.443146 71.239342,101.403549 70.680397,101.167206 
	C71.421432,100.300919 72.380318,99.631386 73.651924,99.090515 
	C73.706436,99.683014 73.448219,100.146828 73.117317,101.054802 
	C73.044632,101.498955 73.099777,101.872993 72.784096,101.839180 
	C72.286110,101.697823 72.103813,101.590279 71.921509,101.482742 
z"/>
<path fill="#EA6F6F" opacity="1.000000" stroke="none" 
	d="
M66.794128,99.264725 
	C67.109711,99.790352 67.045738,100.167465 66.719803,100.870003 
	C66.118210,101.448647 65.778587,101.701874 65.080551,101.955093 
	C64.486107,101.917900 64.250069,101.880714 64.014038,101.843529 
	C64.007179,101.189049 64.000313,100.534576 63.990242,99.553780 
	C64.796211,99.190376 65.605400,99.153297 66.794128,99.264725 
z"/>
<path fill="#DF1E1E" opacity="1.000000" stroke="none" 
	d="
M135.173691,99.413239 
	C135.690125,99.417633 136.206558,99.422028 136.891785,99.930313 
	C137.036575,100.632294 137.012558,100.830383 136.639511,101.089584 
	C135.763641,102.131653 135.236786,103.112617 134.828842,103.734024 
	C134.925644,102.619949 134.903534,101.865433 134.931580,100.827744 
	C135.045731,100.167465 135.109711,99.790344 135.173691,99.413239 
z"/>
<path fill="#EA6F6F" opacity="1.000000" stroke="none" 
	d="
M134.794159,99.264725 
	C135.109711,99.790344 135.045731,100.167465 134.719788,100.870003 
	C134.118225,101.448647 133.778595,101.701874 133.080551,101.955093 
	C132.486115,101.917900 132.250092,101.880714 132.014053,101.843529 
	C132.007187,101.189049 132.000320,100.534576 131.990265,99.553772 
	C132.796249,99.190376 133.605438,99.153297 134.794159,99.264725 
z"/>
<path fill="#FBE2E2" opacity="1.000000" stroke="none" 
	d="
M206.532898,100.919884 
	C206.653809,101.676025 206.778854,102.456085 206.954834,103.958130 
	C207.009430,105.123505 207.013092,105.566895 207.016754,106.010284 
	C206.564407,106.066658 206.112076,106.123024 205.328491,106.077866 
	C205.002487,105.791710 205.007706,105.607094 205.399734,105.034912 
	C206.037094,103.429001 206.287643,102.210648 206.538208,100.992287 
	C206.538193,100.992287 206.537003,100.943810 206.532898,100.919884 
z"/>
<path fill="#FBE2E2" opacity="1.000000" stroke="none" 
	d="
M138.525772,100.920250 
	C138.648651,101.676140 138.775909,102.455978 138.954468,103.957962 
	C139.009415,105.123505 139.013092,105.566895 139.016754,106.010284 
	C138.564346,106.066711 138.111954,106.123138 137.336792,105.802155 
	C137.028915,105.241394 137.043777,105.058029 137.423157,104.760788 
	C138.036316,103.428833 138.284943,102.210762 138.533569,100.992691 
	C138.533569,100.992691 138.530151,100.944191 138.525772,100.920250 
z"/>
<path fill="#DA0202" opacity="1.000000" stroke="none" 
	d="
M206.463959,100.532013 
	C206.287643,102.210648 206.037094,103.429001 205.420929,104.758682 
	C205.023788,103.806709 204.992264,102.743416 204.756256,101.337410 
	C205.164398,100.687050 205.777039,100.379395 206.463959,100.532013 
z"/>
<path fill="#DF1E1E" opacity="1.000000" stroke="none" 
	d="
M202.881424,101.110924 
	C202.920761,100.831932 202.960083,100.552940 203.014938,99.851257 
	C203.525314,99.664558 204.020142,99.900558 204.505157,100.567558 
	C204.315872,101.901070 204.182022,102.817749 203.910614,103.691711 
	C203.866913,103.832352 203.209839,103.782509 202.890198,103.140450 
	C202.923187,102.010429 202.902298,101.560677 202.881424,101.110924 
z"/>
<path fill="#DC0F0F" opacity="1.000000" stroke="none" 
	d="
M179.896942,101.130524 
	C179.931824,100.855003 179.966721,100.579475 180.016510,99.887466 
	C180.561111,99.662231 181.090836,99.853493 181.366608,100.802567 
	C181.069550,102.708488 181.026398,103.856598 180.983246,105.004707 
	C180.983246,105.004707 180.593140,104.954964 180.309784,104.585190 
	C179.983276,103.187126 179.940109,102.158821 179.896942,101.130524 
z"/>
<path fill="#EA6D6D" opacity="1.000000" stroke="none" 
	d="
M222.167084,99.340576 
	C222.561996,99.713081 222.679214,99.979561 222.826569,100.681732 
	C221.353607,101.081329 219.850525,101.045235 217.894485,100.996544 
	C217.351074,100.787338 217.260620,100.590729 217.889526,100.141113 
	C218.943817,99.844620 219.278748,99.801140 219.613678,99.757660 
	C220.372253,99.583290 221.130814,99.408920 222.167084,99.340576 
z"/>
<path fill="#DA0202" opacity="1.000000" stroke="none" 
	d="
M138.527527,100.579453 
	C138.284943,102.210762 138.036316,103.428833 137.401230,104.376656 
	C137.006027,103.080429 136.997284,102.054459 136.988525,101.028481 
	C137.012558,100.830383 137.036575,100.632294 137.051361,100.134979 
	C137.535248,99.945908 138.028381,100.056061 138.527527,100.579453 
z"/>
<path fill="#DA0202" opacity="1.000000" stroke="none" 
	d="
M70.527542,100.579468 
	C70.284950,102.210762 70.036339,103.428825 69.401260,104.376656 
	C69.006020,103.080421 68.997261,102.054420 68.988503,101.028427 
	C69.012543,100.830338 69.036575,100.632248 69.051399,100.134949 
	C69.535301,99.945900 70.028404,100.056076 70.527542,100.579468 
z"/>
<path fill="#DC0F0F" opacity="1.000000" stroke="none" 
	d="
M43.896923,101.130493 
	C43.931824,100.854973 43.966728,100.579460 44.016514,99.887451 
	C44.561138,99.662231 45.090874,99.853485 45.366653,100.802528 
	C45.069538,102.708443 45.026379,103.856567 44.983219,105.004700 
	C44.983219,105.004700 44.593121,104.954971 44.309780,104.585197 
	C43.983269,103.187111 43.940094,102.158806 43.896923,101.130493 
z"/>
<path fill="#B7DFC0" opacity="1.000000" stroke="none" 
	d="
M91.138710,45.913811 
	C90.933548,44.824524 90.961662,43.802616 90.998901,42.396370 
	C91.326538,43.111938 91.645027,44.211845 91.906693,45.689640 
	C91.849861,46.067528 91.371986,45.981190 91.138710,45.913811 
z"/>
<path fill="#B7DFC0" opacity="1.000000" stroke="none" 
	d="
M23.138718,45.913811 
	C22.933556,44.824524 22.961664,43.802624 22.998898,42.396378 
	C23.326523,43.111938 23.645023,44.211845 23.906694,45.689640 
	C23.849865,46.067532 23.371986,45.981194 23.138718,45.913811 
z"/>
<path fill="#F8CDCD" opacity="1.000000" stroke="none" 
	d="
M181.341583,104.850433 
	C181.026398,103.856598 181.069550,102.708488 181.404816,101.237137 
	C181.696930,100.913902 181.642166,100.957138 181.620941,100.931824 
	C181.633118,102.169724 181.666534,103.432938 181.341583,104.850433 
z"/>
<path fill="#B7DFC0" opacity="1.000000" stroke="none" 
	d="
M227.138702,45.913818 
	C226.933548,44.824532 226.961655,43.802628 226.998886,42.396381 
	C227.326508,43.111938 227.645004,44.211842 227.906693,45.689632 
	C227.849869,46.067520 227.371979,45.981197 227.138702,45.913818 
z"/>
<path fill="#F8CDCD" opacity="1.000000" stroke="none" 
	d="
M45.341576,104.850433 
	C45.026379,103.856567 45.069538,102.708443 45.404869,101.237106 
	C45.697048,100.913902 45.642269,100.957138 45.621040,100.931824 
	C45.633183,102.169724 45.666557,103.432945 45.341576,104.850433 
z"/>
<path fill="#B7DFC0" opacity="1.000000" stroke="none" 
	d="
M159.138702,45.913818 
	C158.933548,44.824532 158.961655,43.802628 158.998886,42.396381 
	C159.326508,43.111938 159.645004,44.211842 159.906693,45.689632 
	C159.849869,46.067520 159.371979,45.981197 159.138702,45.913818 
z"/>
<path fill="#EA6F6F" opacity="1.000000" stroke="none" 
	d="
M83.591949,99.088135 
	C83.112511,99.355980 82.276855,99.493332 81.249496,99.424591 
	C81.783775,99.131554 82.509750,99.044594 83.591949,99.088135 
z"/>
<path fill="#EA6F6F" opacity="1.000000" stroke="none" 
	d="
M151.633606,99.103004 
	C151.390488,99.292824 150.827515,99.366875 150.132996,99.223877 
	C150.438889,99.000305 150.876312,98.993774 151.633606,99.103004 
z"/>
<path fill="#EA6F6F" opacity="1.000000" stroke="none" 
	d="
M219.403229,99.449417 
	C219.278748,99.801140 218.943817,99.844620 218.100418,99.894333 
	C218.125565,99.647430 218.659180,99.394302 219.403229,99.449417 
z"/>
<path fill="#DF2222" opacity="1.000000" stroke="none" 
	d="
M140.507568,85.493546 
	C140.508286,85.513069 140.506851,85.474014 140.507568,85.493546 
z"/>
<path fill="#7FC790" opacity="1.000000" stroke="none" 
	d="
M143.788422,47.425484 
	C143.591934,47.223560 143.414352,46.989971 143.122742,46.330811 
	C143.281326,46.067333 143.553909,46.229420 143.854889,46.872231 
	C143.883316,47.352947 143.807312,47.393822 143.788422,47.425484 
z"/>
<path fill="#A9DAB5" opacity="1.000000" stroke="none" 
	d="
M67.668915,45.804222 
	C67.175591,46.112888 66.366623,46.213779 65.277168,46.157234 
	C64.821022,44.877670 64.645355,43.755543 64.287979,42.423126 
	C67.488182,41.133968 66.915939,43.849606 67.668915,45.804222 
z"/>
<path fill="#A9DAB5" opacity="1.000000" stroke="none" 
	d="
M135.984924,46.011585 
	C135.175827,46.112602 134.366730,46.213615 133.277161,46.157215 
	C132.821014,44.877636 132.645325,43.755474 132.287964,42.422966 
	C132.830292,42.107677 133.554291,42.002747 134.671356,42.204369 
	C135.105042,42.685326 135.145660,42.859726 135.143494,43.369408 
	C135.395432,44.473660 135.690186,45.242622 135.984924,46.011585 
z"/>
<path fill="#A9DAB5" opacity="1.000000" stroke="none" 
	d="
M203.668900,45.804222 
	C203.175583,46.112892 202.366623,46.213787 201.277191,46.157238 
	C200.821045,44.877666 200.645370,43.755539 200.287994,42.423107 
	C203.488174,41.134003 202.915955,43.849602 203.668900,45.804222 
z"/>
<path fill="#39A953" opacity="1.000000" stroke="none" 
	d="
M135.186279,43.034122 
	C135.145660,42.859726 135.105042,42.685326 135.036377,42.243774 
	C135.516373,41.669434 136.024429,41.362244 136.848892,41.102093 
	C137.148056,41.525887 137.130814,41.902637 136.805130,42.629047 
	C136.059891,42.997173 135.623077,43.015648 135.186279,43.034122 
z"/>
<path fill="#A9DAB5" opacity="1.000000" stroke="none" 
	d="
M6.055062,45.687431 
	C5.729596,46.190262 5.230389,46.431965 4.472397,46.772034 
	C4.169516,46.092709 4.125420,45.315010 4.054544,44.065022 
	C4.922949,44.712139 5.402135,45.069218 6.055062,45.687431 
z"/>
<path fill="#FBDFDF" opacity="1.000000" stroke="none" 
	d="
M15.624081,105.229637 
	C13.800093,105.418640 11.976106,105.607651 10.424881,105.397514 
	C11.453684,104.670883 12.209725,104.343391 13.160383,103.928040 
	C13.614969,103.702728 13.814185,103.504295 14.314164,103.327103 
	C15.126448,103.437370 15.577212,103.465416 16.038616,103.517654 
	C16.049257,103.541862 16.000862,103.520248 16.000862,103.520248 
	C15.794203,103.775688 15.587543,104.031120 15.516438,104.787476 
	C15.651989,105.288399 15.624081,105.229637 15.624081,105.229637 
z"/>
<path fill="#FBDFDF" opacity="1.000000" stroke="none" 
	d="
M83.624084,105.229630 
	C82.019173,105.544670 80.414253,105.859703 78.408600,105.794968 
	C78.027390,105.232536 78.046936,105.049873 78.421509,104.926590 
	C79.506012,104.662521 80.235497,104.339066 81.159744,103.927887 
	C81.614677,103.702820 81.814018,103.504372 82.314072,103.327057 
	C83.126396,103.437347 83.577187,103.465401 84.038620,103.517662 
	C84.049255,103.541870 84.000854,103.520241 84.000854,103.520241 
	C83.794205,103.775673 83.587547,104.031113 83.516434,104.787476 
	C83.651985,105.288399 83.624084,105.229637 83.624084,105.229630 
z"/>
<path fill="#FBDFDF" opacity="1.000000" stroke="none" 
	d="
M152.000885,103.520256 
	C151.794220,103.775696 151.587555,104.031128 151.516449,104.787483 
	C151.652008,105.288399 151.624069,105.229645 151.624069,105.229645 
	C150.019165,105.544670 148.414276,105.859695 146.408615,105.794960 
	C146.027405,105.232544 146.046936,105.049881 146.421509,104.926605 
	C147.506042,104.662529 148.235535,104.339073 149.159790,103.927887 
	C149.614716,103.702812 149.814056,103.504372 150.314087,103.327057 
	C151.126404,103.437347 151.577179,103.465408 152.038635,103.517670 
	C152.049286,103.541878 152.000885,103.520256 152.000885,103.520256 
z"/>
<path fill="#FBDFDF" opacity="1.000000" stroke="none" 
	d="
M217.952560,103.244827 
	C218.411713,103.420990 218.870865,103.597153 219.644867,103.627670 
	C219.959732,103.482025 219.938583,103.414131 219.938583,103.414131 
	C219.747635,103.694839 219.556686,103.975548 219.508881,104.772324 
	C219.652008,105.288399 219.624069,105.229645 219.624069,105.229645 
	C218.019165,105.544670 216.414276,105.859695 214.408615,105.794968 
	C214.027405,105.232544 214.046936,105.049881 214.421509,104.926605 
	C215.506042,104.662537 216.235535,104.339081 217.159790,103.927887 
	C217.614716,103.702812 217.814056,103.504372 217.952560,103.244827 
z"/>
<path fill="#FFFFFF" opacity="1.000000" stroke="none" 
	d="
M107.123314,103.089417 
	C108.500687,102.539314 109.878059,101.989220 111.623596,101.661774 
	C112.061134,102.912094 112.130524,103.939766 112.199905,104.967430 
	C112.153343,105.162773 112.106789,105.358109 112.041794,105.854088 
	C110.619301,105.538551 109.215263,104.922363 107.478867,104.092369 
	C107.138786,103.615517 107.131050,103.352470 107.123314,103.089417 
z"/>
<path fill="#FFFFFF" opacity="1.000000" stroke="none" 
	d="
M243.124634,103.090042 
	C244.501663,102.540298 245.878693,101.990547 247.623688,101.653725 
	C248.009262,102.877045 248.026886,103.887451 248.023407,105.157516 
	C247.999863,105.590858 247.997391,105.764526 247.994934,105.938187 
	C246.596939,105.395836 245.198944,104.853477 243.473953,104.095009 
	C243.139511,103.615936 243.132065,103.352982 243.124634,103.090042 
z"/>
<path fill="#EF9393" opacity="1.000000" stroke="none" 
	d="
M250.912582,104.857056 
	C251.134277,103.641792 251.355972,102.426521 251.850067,100.947655 
	C252.312363,102.356567 252.502274,104.029091 252.253021,105.584885 
	C251.513412,105.264465 251.212997,105.060760 250.912582,104.857056 
z"/>
<path fill="#FFFFFF" opacity="1.000000" stroke="none" 
	d="
M179.577179,101.285660 
	C179.940109,102.158821 179.983276,103.187126 180.113266,104.591949 
	C180.153473,105.163559 180.106842,105.358643 180.042023,105.854050 
	C178.619659,105.538300 177.215469,104.922218 175.478897,104.092354 
	C175.138779,103.615517 175.131058,103.352470 175.123322,103.089424 
	C176.501343,102.539886 177.879379,101.990341 179.577179,101.285660 
z"/>
<path fill="#DB0808" opacity="1.000000" stroke="none" 
	d="
M12.965767,104.015915 
	C12.209725,104.343391 11.453684,104.670883 10.332682,104.994202 
	C9.343124,104.582184 8.718527,104.174324 8.044072,103.465706 
	C8.779562,102.855232 9.564910,102.545517 10.686867,102.435417 
	C11.045390,102.812668 11.067304,102.990311 11.199993,103.430344 
	C11.862436,103.800461 12.414102,103.908188 12.965767,104.015915 
z"/>
<path fill="#FEF8F8" opacity="1.000000" stroke="none" 
	d="
M132.008163,106.026337 
	C131.014862,105.325752 130.021561,104.625175 129.431793,103.472351 
	C130.871918,102.999596 131.908524,102.979088 133.167572,103.085159 
	C133.596039,103.471680 133.802063,103.731613 134.004242,103.995560 
	C134.000412,103.999557 134.009766,103.990189 133.648514,104.017242 
	C132.331055,104.044289 131.374832,104.044289 129.872818,104.044289 
	C130.977951,105.070076 131.493057,105.548203 132.008163,106.026337 
z"/>
<path fill="#FEF8F8" opacity="1.000000" stroke="none" 
	d="
M66.709335,102.965126 
	C66.691330,103.266235 66.673325,103.567352 66.039337,104.024307 
	C64.434410,104.180145 63.445469,104.180145 62.045460,104.180145 
	C62.970924,105.050659 63.489548,105.538490 64.008171,106.026321 
	C63.253960,106.055176 62.499744,106.084023 61.394974,105.970963 
	C61.044411,105.829048 61.086014,105.387657 61.049026,104.878647 
	C61.030602,103.960014 61.049164,103.550385 61.451172,103.080429 
	C62.870075,102.999954 63.905533,102.979820 65.382935,103.008179 
	C66.119698,103.026161 66.414513,102.995644 66.709335,102.965126 
z"/>
<path fill="#FFFFFF" opacity="1.000000" stroke="none" 
	d="
M43.577164,101.285652 
	C43.940094,102.158806 43.983269,103.187111 44.113270,104.591949 
	C44.153473,105.163559 44.106842,105.358643 44.042046,105.854042 
	C42.619648,105.538307 41.215416,104.922249 39.478844,104.092392 
	C39.138767,103.615540 39.131039,103.352478 39.123310,103.089424 
	C40.501343,102.539886 41.879375,101.990349 43.577164,101.285652 
z"/>
<path fill="#FADADA" opacity="1.000000" stroke="none" 
	d="
M235.667480,103.427132 
	C236.027267,103.172592 236.373856,103.367180 236.963013,104.128342 
	C238.096252,104.484680 238.986923,104.274467 240.117218,104.027939 
	C240.356873,103.991623 240.840744,103.962242 240.916122,104.299271 
	C241.004211,105.096962 241.016937,105.557617 241.029663,106.018272 
	C239.122086,105.594795 236.009720,108.194778 235.667480,103.427132 
z"/>
<path fill="#E23939" opacity="1.000000" stroke="none" 
	d="
M200.138474,106.251480 
	C199.493301,105.543007 198.978455,105.059677 198.463608,104.576347 
	C198.580032,104.319641 198.696457,104.062927 198.812881,103.806221 
	C199.839264,104.318588 200.865631,104.830956 201.937592,105.707321 
	C201.411713,106.206421 200.840240,106.341530 200.138474,106.251480 
z"/>
<path fill="#FADADA" opacity="1.000000" stroke="none" 
	d="
M167.665421,103.426888 
	C168.025208,103.171989 168.373108,103.366280 168.963531,104.127914 
	C170.096542,104.484909 170.987061,104.274582 172.117218,104.027939 
	C172.356873,103.991623 172.840744,103.962242 172.916122,104.299271 
	C173.004211,105.096962 173.016937,105.557617 173.029663,106.018272 
	C171.121490,105.595642 168.009735,108.193588 167.665421,103.426888 
z"/>
<path fill="#E23939" opacity="1.000000" stroke="none" 
	d="
M132.138336,106.251846 
	C131.493057,105.548203 130.977951,105.070076 129.872818,104.044289 
	C131.374832,104.044289 132.331055,104.044289 133.641205,104.366005 
	C133.992828,105.150085 133.990494,105.612457 133.988159,106.074821 
	C133.414948,106.209000 132.841721,106.343178 132.138336,106.251846 
z"/>
<path fill="#FADADA" opacity="1.000000" stroke="none" 
	d="
M99.665421,103.426895 
	C100.025208,103.172005 100.373123,103.366295 100.963531,104.127914 
	C102.096542,104.484917 102.987053,104.274582 104.117218,104.027924 
	C104.356873,103.991608 104.840752,103.962242 104.916130,104.299271 
	C105.004227,105.096962 105.016945,105.557625 105.029663,106.018280 
	C103.121490,105.595650 100.009743,108.193573 99.665421,103.426895 
z"/>
<path fill="#E23939" opacity="1.000000" stroke="none" 
	d="
M64.138336,106.251831 
	C63.489548,105.538490 62.970924,105.050659 62.045460,104.180145 
	C63.445469,104.180145 64.434410,104.180145 65.744804,104.367798 
	C66.066254,104.555450 66.011993,104.504517 65.968773,104.881821 
	C65.946472,105.531067 65.967392,105.803001 65.988304,106.074928 
	C65.415031,106.209068 64.841766,106.343208 64.138336,106.251831 
z"/>
<path fill="#FADADA" opacity="1.000000" stroke="none" 
	d="
M31.665428,103.426926 
	C32.025208,103.171997 32.373116,103.366287 32.963524,104.127914 
	C34.096535,104.484917 34.987038,104.274582 36.117199,104.027924 
	C36.356853,103.991608 36.840748,103.962242 36.915794,104.299561 
	C37.004002,105.097450 37.017159,105.558029 37.030315,106.018600 
	C35.122192,105.595238 32.009911,108.193840 31.665428,103.426926 
z"/>
<path fill="#FEF8F8" opacity="1.000000" stroke="none" 
	d="
M134.365158,106.118988 
	C133.990494,105.612457 133.992828,105.150085 134.002472,104.338959 
	C134.009766,103.990189 134.000412,103.999557 134.173187,104.065979 
	C134.345963,104.132408 134.709930,104.093582 134.709930,104.093582 
	C135.236786,103.112617 135.763641,102.131653 136.639511,101.089584 
	C136.997284,102.054459 137.006027,103.080429 137.036697,104.490540 
	C137.043777,105.058029 137.028915,105.241394 137.005539,105.700562 
	C136.245407,106.038620 135.493774,106.100883 134.365158,106.118988 
z"/>
<path fill="#FFFFFF" opacity="1.000000" stroke="none" 
	d="
M146.066483,104.867226 
	C146.046936,105.049881 146.027405,105.232544 146.000824,105.690659 
	C144.935455,105.314690 143.877106,104.663254 142.231033,103.952866 
	C141.282532,103.765083 141.098923,103.509155 141.494293,103.068680 
	C143.247360,103.044243 144.598618,103.077271 145.980850,103.402351 
	C146.030045,104.085342 146.048264,104.476288 146.066483,104.867226 
z"/>
<path fill="#FFFFFF" opacity="1.000000" stroke="none" 
	d="
M214.066467,104.867226 
	C214.046936,105.049881 214.027405,105.232544 214.000824,105.690659 
	C212.935455,105.314690 211.877106,104.663254 210.231033,103.952866 
	C209.282532,103.765083 209.098923,103.509155 209.494308,103.068680 
	C211.247391,103.044243 212.598633,103.077263 213.980835,103.402344 
	C214.030029,104.085342 214.048248,104.476288 214.066467,104.867226 
z"/>
<path fill="#FEF8F8" opacity="1.000000" stroke="none" 
	d="
M66.365295,106.119041 
	C65.967392,105.803001 65.946472,105.531067 65.948380,104.850693 
	C66.729988,103.368828 67.488770,102.295410 68.618027,101.125206 
	C68.997261,102.054420 69.006020,103.080421 69.036713,104.490555 
	C69.043785,105.058044 69.028923,105.241394 69.005539,105.700562 
	C68.245438,106.038628 67.493858,106.100891 66.365295,106.119041 
z"/>
<path fill="#FFFFFF" opacity="1.000000" stroke="none" 
	d="
M78.066475,104.867210 
	C78.046936,105.049873 78.027390,105.232536 78.000809,105.690666 
	C76.935448,105.314690 75.877129,104.663254 74.231094,103.952850 
	C73.282425,103.764961 73.099228,103.508881 73.495461,103.068367 
	C75.248047,103.044151 76.598961,103.077209 77.980850,103.402328 
	C78.030037,104.085327 78.048256,104.476273 78.066475,104.867210 
z"/>
<path fill="#FFFFFF" opacity="1.000000" stroke="none" 
	d="
M16.369999,103.735184 
	C16.000862,103.520248 16.049257,103.541862 16.374722,103.296280 
	C17.760363,102.942642 18.820541,102.834579 19.880718,102.726517 
	C20.203283,102.933365 20.525848,103.140221 20.920689,103.645981 
	C19.575024,103.946632 18.157082,103.948380 16.369999,103.735184 
z"/>
<path fill="#EF9393" opacity="1.000000" stroke="none" 
	d="
M73.093788,103.125648 
	C73.099228,103.508881 73.282425,103.764961 73.870392,103.999481 
	C73.635979,104.761398 73.174545,105.417717 72.349319,105.607216 
	C71.983154,104.575165 71.980797,104.009933 71.978439,103.444702 
	C71.978439,103.444702 72.006714,103.506638 72.234329,103.338356 
	C72.672562,103.155258 72.883179,103.140450 73.093788,103.125648 
z"/>
<path fill="#FFFFFF" opacity="1.000000" stroke="none" 
	d="
M84.369995,103.735184 
	C84.000854,103.520241 84.049255,103.541870 84.374725,103.296280 
	C85.760368,102.942635 86.820549,102.834572 87.880730,102.726501 
	C88.203293,102.933357 88.525848,103.140205 88.920692,103.645966 
	C87.575027,103.946625 86.157082,103.948380 84.369995,103.735184 
z"/>
<path fill="#EF9393" opacity="1.000000" stroke="none" 
	d="
M141.092468,103.126144 
	C141.098923,103.509155 141.282532,103.765083 141.870331,103.999496 
	C141.634659,104.761932 141.171921,105.418777 140.351715,105.703506 
	C139.993942,104.889923 139.993637,104.448463 139.993317,104.006996 
	C139.993317,104.006996 140.017090,103.633682 140.269226,103.359604 
	C140.711731,103.099068 140.902100,103.112602 141.092468,103.126144 
z"/>
<path fill="#FFFFFF" opacity="1.000000" stroke="none" 
	d="
M152.370026,103.735199 
	C152.000885,103.520256 152.049286,103.541878 152.374725,103.296295 
	C153.760361,102.942642 154.820541,102.834572 155.880722,102.726509 
	C156.203278,102.933365 156.525848,103.140213 156.920685,103.645973 
	C155.575043,103.946632 154.157089,103.948380 152.370026,103.735199 
z"/>
<path fill="#EF9393" opacity="1.000000" stroke="none" 
	d="
M209.092468,103.126144 
	C209.098923,103.509155 209.282532,103.765083 209.870331,103.999496 
	C209.634659,104.761925 209.171921,105.418777 208.351715,105.703506 
	C207.993942,104.889923 207.993637,104.448463 207.993317,104.006996 
	C207.993317,104.006996 208.017120,103.633652 208.269257,103.359573 
	C208.711746,103.099052 208.902115,103.112602 209.092468,103.126144 
z"/>
<path fill="#FFFFFF" opacity="1.000000" stroke="none" 
	d="
M220.292786,103.674034 
	C219.938583,103.414131 219.959732,103.482025 219.993988,103.490242 
	C221.058960,103.317070 222.089706,103.135681 223.505508,102.836502 
	C224.209854,102.925385 224.529129,103.132057 224.920837,103.641731 
	C223.544495,103.941139 222.095749,103.937538 220.292786,103.674034 
z"/>
<path fill="#FDEEEE" opacity="1.000000" stroke="none" 
	d="
M250.726624,104.895599 
	C251.212997,105.060760 251.513412,105.264465 251.901581,105.727661 
	C250.918060,106.041946 249.846802,106.096741 248.385239,106.044861 
	C247.997391,105.764526 247.999863,105.590858 248.232697,105.203651 
	C248.463058,104.990120 248.889206,104.944489 249.207596,104.944275 
	C249.737915,104.932045 249.949829,104.920029 250.161758,104.908005 
	C250.161758,104.908005 250.540665,104.934128 250.726624,104.895599 
z"/>
<path fill="#F3ABAB" opacity="1.000000" stroke="none" 
	d="
M23.894199,104.624077 
	C23.687201,103.783371 23.550682,102.586639 23.703773,101.475151 
	C24.023972,101.738548 24.054558,101.916710 24.085146,102.094879 
	C24.044991,102.819275 24.004835,103.543663 23.894199,104.624077 
z"/>
<path fill="#E44545" opacity="1.000000" stroke="none" 
	d="
M219.756012,105.559723 
	C219.624069,105.229645 219.652008,105.288399 219.617371,105.269890 
	C220.454666,105.553314 221.326584,105.855255 222.198517,106.157196 
	C222.114212,106.394203 222.029907,106.631218 221.945618,106.868233 
	C221.259735,106.542084 220.573853,106.215942 219.756012,105.559723 
z"/>
<path fill="#E44545" opacity="1.000000" stroke="none" 
	d="
M151.756012,105.559723 
	C151.624069,105.229645 151.652008,105.288399 151.617371,105.269882 
	C152.454666,105.553307 153.326599,105.855247 154.198517,106.157188 
	C154.114212,106.394203 154.029907,106.631218 153.945618,106.868233 
	C153.259735,106.542091 152.573853,106.215950 151.756012,105.559723 
z"/>
<path fill="#E44545" opacity="1.000000" stroke="none" 
	d="
M83.756027,105.559723 
	C83.624084,105.229637 83.651985,105.288399 83.617363,105.269875 
	C84.454666,105.553299 85.326591,105.855247 86.198517,106.157188 
	C86.114212,106.394203 86.029915,106.631226 85.945618,106.868240 
	C85.259735,106.542091 84.573860,106.215942 83.756027,105.559723 
z"/>
<path fill="#E44545" opacity="1.000000" stroke="none" 
	d="
M15.756029,105.559715 
	C15.624081,105.229637 15.651989,105.288399 15.617364,105.269882 
	C16.454668,105.553299 17.326595,105.855240 18.198524,106.157173 
	C18.114227,106.394196 18.029932,106.631218 17.945637,106.868233 
	C17.259750,106.542091 16.573864,106.215942 15.756029,105.559715 
z"/>
<path fill="#F3ABAB" opacity="1.000000" stroke="none" 
	d="
M227.894135,104.622086 
	C227.781921,103.893730 227.740143,102.807358 227.890137,101.899963 
	C228.042786,102.807320 228.003693,103.535690 227.894135,104.622086 
z"/>
<path fill="#F3ABAB" opacity="1.000000" stroke="none" 
	d="
M159.894135,104.622086 
	C159.781906,103.893730 159.740128,102.807358 159.890137,101.899963 
	C160.042786,102.807320 160.003693,103.535690 159.894135,104.622086 
z"/>
<path fill="#DF1E1E" opacity="1.000000" stroke="none" 
	d="
M132.945129,102.958572 
	C131.908524,102.979088 130.871918,102.999596 129.451477,103.080505 
	C129.046677,102.967049 129.025711,102.793205 128.983795,102.358612 
	C129.727570,102.054840 130.492325,102.011826 131.635559,101.906174 
	C132.250092,101.880714 132.486115,101.917900 132.986694,102.220963 
	C133.149216,102.644089 133.047165,102.801338 132.945129,102.958572 
z"/>
<path fill="#F3ABAB" opacity="1.000000" stroke="none" 
	d="
M91.894165,104.622063 
	C91.781937,103.893707 91.740158,102.807335 91.890137,101.899956 
	C92.042801,102.807312 92.003708,103.535683 91.894165,104.622063 
z"/>
<path fill="#E96B6B" opacity="1.000000" stroke="none" 
	d="
M24.395256,102.018219 
	C24.054558,101.916710 24.023972,101.738548 23.975590,101.289963 
	C24.417648,100.769783 24.877501,100.520027 25.570282,100.152954 
	C25.437262,100.670952 25.071314,101.306259 24.395256,102.018219 
z"/>
<path fill="#F09595" opacity="1.000000" stroke="none" 
	d="
M242.846375,103.056854 
	C243.132065,103.352982 243.139511,103.615936 243.131470,104.273956 
	C242.936066,105.114273 242.756149,105.559525 242.286377,105.624870 
	C242.000412,104.496765 242.004288,103.748558 242.008163,103.000351 
	C242.194824,103.008125 242.381470,103.015907 242.846375,103.056854 
z"/>
<path fill="#E44545" opacity="1.000000" stroke="none" 
	d="
M241.730820,103.003387 
	C242.004288,103.748558 242.000412,104.496765 242.002838,105.618317 
	C242.009125,105.991653 241.519257,106.014015 241.274460,106.016144 
	C241.016937,105.557617 241.004211,105.096962 240.975800,104.067375 
	C240.960083,103.498444 240.899017,103.023445 240.899017,103.023445 
	C241.083832,103.017776 241.268646,103.012100 241.730820,103.003387 
z"/>
<path fill="#F09595" opacity="1.000000" stroke="none" 
	d="
M174.845184,103.056213 
	C175.131058,103.352470 175.138779,103.615517 175.131256,104.273788 
	C174.936066,105.114265 174.756134,105.559509 174.286377,105.624863 
	C174.000122,104.496758 174.003693,103.748543 174.007294,103.000336 
	C174.193878,103.007889 174.380463,103.015442 174.845184,103.056213 
z"/>
<path fill="#E44545" opacity="1.000000" stroke="none" 
	d="
M173.730499,103.003418 
	C174.003693,103.748543 174.000122,104.496758 174.002838,105.618309 
	C174.009125,105.991653 173.519257,106.014015 173.274460,106.016144 
	C173.016937,105.557617 173.004211,105.096962 172.975891,104.067368 
	C172.960281,103.498436 172.900391,103.023232 172.900391,103.023232 
	C173.084839,103.017647 173.269287,103.012070 173.730499,103.003418 
z"/>
<path fill="#F09595" opacity="1.000000" stroke="none" 
	d="
M106.845184,103.056206 
	C107.131050,103.352470 107.138786,103.615517 107.131241,104.273804 
	C106.936043,105.114281 106.756119,105.559517 106.286385,105.624863 
	C106.000145,104.496758 106.003716,103.748543 106.007294,103.000336 
	C106.193878,103.007889 106.380463,103.015442 106.845184,103.056206 
z"/>
<path fill="#E44545" opacity="1.000000" stroke="none" 
	d="
M37.276783,106.016464 
	C37.017159,105.558029 37.004002,105.097450 36.975563,104.067657 
	C36.960281,103.498436 36.900387,103.023232 36.900387,103.023232 
	C37.086975,103.017647 37.273567,103.012054 37.727859,103.376785 
	C38.002174,104.493378 38.008781,105.239624 38.015385,105.985878 
	C38.015385,105.985878 37.523251,106.014328 37.276783,106.016464 
z"/>
<path fill="#E44545" opacity="1.000000" stroke="none" 
	d="
M105.730515,103.003418 
	C106.003716,103.748543 106.000145,104.496758 106.002838,105.618309 
	C106.009117,105.991653 105.519249,106.014015 105.274460,106.016144 
	C105.016945,105.557625 105.004227,105.096962 104.975891,104.067368 
	C104.960281,103.498436 104.900391,103.023232 104.900391,103.023232 
	C105.084839,103.017647 105.269287,103.012070 105.730515,103.003418 
z"/>
<path fill="#F09595" opacity="1.000000" stroke="none" 
	d="
M38.298065,105.994080 
	C38.008781,105.239624 38.002174,104.493378 38.007858,103.374123 
	C38.204590,103.008301 38.389023,103.015488 38.848385,103.056046 
	C39.131039,103.352478 39.138767,103.615540 39.131187,104.273842 
	C38.937500,105.113487 38.759121,105.557884 38.298065,105.994080 
z"/>
<path fill="#E44545" opacity="1.000000" stroke="none" 
	d="
M207.756027,103.995621 
	C207.993637,104.448463 207.993942,104.889923 208.000916,105.662140 
	C208.007599,105.992882 207.512161,106.013077 207.264465,106.011681 
	C207.013092,105.566895 207.009430,105.123505 207.025299,104.349083 
	C207.044846,104.018051 207.518738,103.984253 207.756027,103.995621 
z"/>
<path fill="#E44545" opacity="1.000000" stroke="none" 
	d="
M139.756027,103.995621 
	C139.993637,104.448463 139.993942,104.889923 140.000916,105.662140 
	C140.007599,105.992882 139.512161,106.013077 139.264465,106.011681 
	C139.013092,105.566895 139.009415,105.123505 139.025299,104.349083 
	C139.044846,104.018051 139.518738,103.984253 139.756027,103.995621 
z"/>
<path fill="#E44545" opacity="1.000000" stroke="none" 
	d="
M71.616241,103.582962 
	C71.980797,104.009933 71.983154,104.575165 71.999191,105.564056 
	C72.012863,105.987717 71.516174,106.028465 71.267151,106.019806 
	C71.096764,105.247841 71.175407,104.484535 71.616241,103.582962 
z"/>
<path fill="#E23939" opacity="1.000000" stroke="none" 
	d="
M75.540100,106.571411 
	C75.459641,106.622818 75.430473,106.414909 75.430473,106.414909 
	C75.430473,106.414909 75.620560,106.520012 75.540100,106.571411 
z"/>
<path fill="#E23939" opacity="1.000000" stroke="none" 
	d="
M143.409546,106.549667 
	C143.353882,106.472000 143.568893,106.444389 143.568893,106.444389 
	C143.568893,106.444389 143.465225,106.627327 143.409546,106.549667 
z"/>
<path fill="#E96868" opacity="1.000000" stroke="none" 
	d="
M233.360504,105.373489 
	C233.613007,105.394394 233.662140,105.569939 233.711273,105.745499 
	C233.526566,105.673042 233.341858,105.600594 233.360504,105.373489 
z"/>
<path fill="#E96868" opacity="1.000000" stroke="none" 
	d="
M165.727661,105.727753 
	C165.474899,105.723213 165.414871,105.551750 165.354858,105.380280 
	C165.543365,105.440460 165.731873,105.500648 165.727661,105.727753 
z"/>
<path fill="#E96868" opacity="1.000000" stroke="none" 
	d="
M97.727654,105.727753 
	C97.474907,105.723213 97.414879,105.551750 97.354843,105.380295 
	C97.543350,105.440468 97.731857,105.500648 97.727654,105.727753 
z"/>
<path fill="#E23939" opacity="1.000000" stroke="none" 
	d="
M211.409546,106.549667 
	C211.353882,106.472000 211.568893,106.444389 211.568893,106.444389 
	C211.568893,106.444389 211.465225,106.627327 211.409546,106.549667 
z"/>
<path fill="#E96868" opacity="1.000000" stroke="none" 
	d="
M29.344809,105.717880 
	C29.353975,105.490822 29.545919,105.441841 29.737864,105.392853 
	C29.667770,105.560555 29.597679,105.728264 29.344809,105.717880 
z"/>
<path fill="#FFFEFE" opacity="1.000000" stroke="none" 
	d="
M130.839386,84.242920 
	C130.847458,84.512039 130.655212,84.584923 130.462982,84.657806 
	C130.521683,84.454102 130.580383,84.250397 130.839386,84.242920 
z"/>
<path fill="#FFFEFE" opacity="1.000000" stroke="none" 
	d="
M126.152580,84.650970 
	C126.153275,84.382034 126.347054,84.315346 126.540840,84.248657 
	C126.475777,84.450172 126.410721,84.651695 126.152580,84.650970 
z"/>
<path fill="#DC0F0F" opacity="1.000000" stroke="none" 
	d="
M112.396469,104.961235 
	C112.130524,103.939766 112.061134,102.912094 111.940369,101.499985 
	C112.085129,100.836266 112.281265,100.556984 112.736954,100.290421 
	C112.996490,100.303139 112.980057,100.698341 112.990921,101.284660 
	C112.995605,102.915543 112.989426,103.960114 112.983238,105.004677 
	C112.983238,105.004677 112.593040,104.955040 112.396469,104.961235 
z"/>
<path fill="#F8CDCD" opacity="1.000000" stroke="none" 
	d="
M113.318970,104.887115 
	C112.989426,103.960114 112.995605,102.915543 113.022354,101.479919 
	C113.246841,102.315750 113.450775,103.542648 113.318970,104.887115 
z"/>
<path fill="#DA0202" opacity="1.000000" stroke="none" 
	d="
M197.067719,103.140762 
	C197.049149,103.550385 197.030579,103.960014 196.964783,104.673592 
	C196.592758,104.195290 196.267944,103.413033 195.992813,102.342857 
	C196.042496,102.054932 196.504684,102.032761 196.754761,102.326019 
	C197.025787,102.793114 197.046753,102.966942 197.067719,103.140762 
z"/>
<path fill="#DA0202" opacity="1.000000" stroke="none" 
	d="
M61.067726,103.140762 
	C61.049164,103.550385 61.030602,103.960014 60.964798,104.673599 
	C60.592739,104.195297 60.267925,103.413040 59.992794,102.342857 
	C60.042477,102.054932 60.504684,102.032753 60.754738,102.326019 
	C61.025776,102.793114 61.046753,102.966942 61.067726,103.140762 
z"/>
<path fill="#24A041" opacity="1.000000" stroke="none" 
	d="
M135.143494,43.369408 
	C135.623077,43.015648 136.059891,42.997173 136.821243,42.913597 
	C137.707199,43.627361 138.268600,44.406231 138.829987,45.185104 
	C138.081192,45.508080 137.332397,45.831047 136.284271,46.082802 
	C135.690186,45.242622 135.395432,44.473660 135.143494,43.369408 
z"/>
<path fill="#DC0F0F" opacity="1.000000" stroke="none" 
	d="
M248.889206,104.944489 
	C248.889206,104.944489 248.463058,104.990120 248.253784,104.943985 
	C248.026886,103.887451 248.009262,102.877045 247.939941,101.491165 
	C248.077850,100.831024 248.267456,100.546364 248.715729,100.238365 
	C248.974380,100.215027 248.991592,100.670151 248.998932,101.276176 
	C248.967270,102.902962 248.928238,103.923729 248.889206,104.944489 
z"/>
<path fill="#DA0202" opacity="1.000000" stroke="none" 
	d="
M239.877579,104.064247 
	C238.986923,104.274467 238.096252,104.484680 237.133286,104.372231 
	C237.239731,104.031952 237.418503,104.014343 238.151443,103.992905 
	C239.096283,104.014130 239.486923,104.039185 239.877579,104.064247 
z"/>
<path fill="#FFFFFF" opacity="1.000000" stroke="none" 
	d="
M240.117218,104.027939 
	C239.486923,104.039185 239.096283,104.014130 238.415802,103.940842 
	C238.833054,103.599236 239.540131,103.305847 240.573120,103.017952 
	C240.899017,103.023445 240.960083,103.498444 240.900421,103.730347 
	C240.840744,103.962242 240.356873,103.991623 240.117218,104.027939 
z"/>
<path fill="#DA0202" opacity="1.000000" stroke="none" 
	d="
M103.877563,104.064240 
	C102.987053,104.274582 102.096542,104.484917 101.133949,104.372620 
	C101.240456,104.032539 101.419044,104.015076 102.151581,103.993370 
	C103.096199,104.014175 103.486885,104.039215 103.877563,104.064240 
z"/>
<path fill="#FFFFFF" opacity="1.000000" stroke="none" 
	d="
M104.117218,104.027924 
	C103.486885,104.039215 103.096199,104.014175 102.415642,103.941223 
	C102.833145,103.599342 103.540520,103.305382 104.574142,103.017326 
	C104.900391,103.023232 104.960281,103.498436 104.900513,103.730339 
	C104.840752,103.962242 104.356873,103.991608 104.117218,104.027924 
z"/>
<path fill="#DA0202" opacity="1.000000" stroke="none" 
	d="
M35.877544,104.064240 
	C34.987038,104.274582 34.096535,104.484917 33.133949,104.372620 
	C33.240463,104.032516 33.419052,104.015060 34.151577,103.993370 
	C35.096191,104.014175 35.486866,104.039207 35.877544,104.064240 
z"/>
<path fill="#FFFFFF" opacity="1.000000" stroke="none" 
	d="
M36.117199,104.027924 
	C35.486866,104.039207 35.096191,104.014175 34.415634,103.941223 
	C34.833138,103.599335 35.540516,103.305374 36.574142,103.017319 
	C36.900387,103.023232 36.960281,103.498436 36.900513,103.730339 
	C36.840748,103.962242 36.356853,103.991608 36.117199,104.027924 
z"/>
<path fill="#DA0202" opacity="1.000000" stroke="none" 
	d="
M171.877579,104.064247 
	C170.987061,104.274582 170.096542,104.484909 169.133942,104.372604 
	C169.240463,104.032516 169.419052,104.015060 170.151581,103.993362 
	C171.096207,104.014175 171.486893,104.039215 171.877579,104.064247 
z"/>
<path fill="#FFFFFF" opacity="1.000000" stroke="none" 
	d="
M172.117218,104.027939 
	C171.486893,104.039215 171.096207,104.014175 170.415634,103.941208 
	C170.833115,103.599327 171.540497,103.305367 172.574127,103.017319 
	C172.900391,103.023232 172.960281,103.498436 172.900513,103.730339 
	C172.840744,103.962242 172.356873,103.991623 172.117218,104.027939 
z"/>
<path fill="#DE1A1A" opacity="1.000000" stroke="none" 
	d="
M19.884087,102.491150 
	C18.820541,102.834579 17.760363,102.942642 16.364080,103.272079 
	C15.577212,103.465416 15.126448,103.437370 13.971677,103.199371 
	C12.541519,103.048927 11.815368,103.108437 11.089216,103.167953 
	C11.067304,102.990311 11.045390,102.812668 11.000608,102.367943 
	C13.600569,101.685837 16.223396,101.270805 18.935455,100.470985 
	C19.329012,100.302582 19.633337,100.518974 20.064789,101.143402 
	C20.191917,101.551445 20.127457,101.850792 20.127457,101.850792 
	C20.127457,101.850792 19.887457,102.255791 19.884087,102.491150 
z"/>
<path fill="#DF1E1E" opacity="1.000000" stroke="none" 
	d="
M61.451172,103.080429 
	C61.046753,102.966942 61.025776,102.793114 60.983810,102.358566 
	C61.727570,102.054840 62.492321,102.011826 63.635551,101.906174 
	C64.250069,101.880714 64.486107,101.917900 64.986176,102.221588 
	C65.147133,102.645287 65.044060,102.802483 64.940987,102.959671 
	C63.905533,102.979820 62.870075,102.999954 61.451172,103.080429 
z"/>
<path fill="#DF1E1E" opacity="1.000000" stroke="none" 
	d="
M197.451141,103.080429 
	C197.046753,102.966942 197.025787,102.793114 196.983826,102.358574 
	C197.727570,102.054840 198.492325,102.011826 199.635559,101.906174 
	C200.250092,101.880714 200.486115,101.917900 200.986160,102.221603 
	C201.147064,102.645317 201.043961,102.802513 200.940872,102.959702 
	C199.905441,102.979828 198.870010,102.999962 197.451141,103.080429 
z"/>
<path fill="#DE1A1A" opacity="1.000000" stroke="none" 
	d="
M87.884094,102.491150 
	C86.820549,102.834572 85.760368,102.942635 84.364082,103.272079 
	C83.577187,103.465401 83.126396,103.437347 81.971931,103.199341 
	C80.542641,103.048035 79.817032,103.106674 79.056351,102.912071 
	C79.009277,102.488800 78.997284,102.318779 79.409943,102.092087 
	C82.174187,101.727386 84.513779,101.419373 86.853371,101.111351 
	C86.885941,100.931496 86.918518,100.751640 87.012886,100.304771 
	C87.364365,100.271690 87.654045,100.505623 88.067825,101.145508 
	C88.191917,101.551460 88.127464,101.850800 88.127464,101.850800 
	C88.127464,101.850800 87.887459,102.255791 87.884094,102.491150 
z"/>
<path fill="#FFFFFF" opacity="1.000000" stroke="none" 
	d="
M88.235413,101.804985 
	C88.127464,101.850800 88.191917,101.551460 88.208237,101.399239 
	C88.224564,101.247017 88.455879,101.507179 88.455879,101.507179 
	C88.455879,101.507179 88.343353,101.759171 88.235413,101.804985 
z"/>
<path fill="#DE1A1A" opacity="1.000000" stroke="none" 
	d="
M155.884094,102.491150 
	C154.820541,102.834572 153.760361,102.942642 152.364075,103.272079 
	C151.577179,103.465408 151.126404,103.437347 149.971954,103.199341 
	C148.542648,103.048042 147.817032,103.106689 147.056335,102.912086 
	C147.009277,102.488815 146.997284,102.318787 147.409943,102.092087 
	C150.174194,101.727394 152.513779,101.419388 154.853378,101.111374 
	C154.885956,100.931511 154.918518,100.751656 155.012909,100.304779 
	C155.364410,100.271690 155.654068,100.505615 156.067841,101.145493 
	C156.191925,101.551445 156.127472,101.850807 156.127472,101.850807 
	C156.127472,101.850807 155.887466,102.255798 155.884094,102.491150 
z"/>
<path fill="#FFFFFF" opacity="1.000000" stroke="none" 
	d="
M156.235413,101.804977 
	C156.127472,101.850807 156.191925,101.551445 156.208252,101.399216 
	C156.224564,101.246986 156.455887,101.507164 156.455887,101.507164 
	C156.455887,101.507164 156.343369,101.759155 156.235413,101.804977 
z"/>
<path fill="#FFFFFF" opacity="1.000000" stroke="none" 
	d="
M224.235413,101.804977 
	C224.127472,101.850807 224.191925,101.551445 224.208252,101.399216 
	C224.224564,101.246986 224.455887,101.507164 224.455887,101.507164 
	C224.455887,101.507164 224.343369,101.759155 224.235413,101.804977 
z"/>
<path fill="#FFFFFF" opacity="1.000000" stroke="none" 
	d="
M20.235407,101.804977 
	C20.127457,101.850792 20.191917,101.551445 20.208244,101.399223 
	C20.224569,101.247002 20.455879,101.507179 20.455879,101.507179 
	C20.455879,101.507179 20.343357,101.759171 20.235407,101.804977 
z"/>
<path fill="#F5BDBD" opacity="1.000000" stroke="none" 
	d="
M154.400024,101.080345 
	C152.513779,101.419388 150.174194,101.727394 147.168625,102.031631 
	C146.502655,102.027863 146.020996,102.151588 145.612610,102.093246 
	C143.832947,101.978920 142.461655,101.922935 141.090378,101.866943 
	C141.090378,101.866943 141.041885,101.495491 141.044281,101.308769 
	C145.346664,101.097801 149.646667,101.073563 154.400024,101.080345 
z"/>
<path fill="#F5BDBD" opacity="1.000000" stroke="none" 
	d="
M86.400009,101.080330 
	C84.513779,101.419373 82.174187,101.727386 79.168625,102.031631 
	C78.502663,102.027863 78.020981,102.151588 77.613197,102.093109 
	C75.836868,101.980751 74.468323,101.926872 73.099777,101.872993 
	C73.099777,101.872993 73.044632,101.498955 73.045715,101.310478 
	C77.346748,101.097771 81.646698,101.073540 86.400009,101.080330 
z"/>
<path fill="#F5BDBD" opacity="1.000000" stroke="none" 
	d="
M201.231476,103.024750 
	C201.043961,102.802513 201.147064,102.645317 201.344574,102.221603 
	C201.778580,101.701859 202.118210,101.448639 202.669632,101.153168 
	C202.902298,101.560677 202.923187,102.010429 202.826996,102.778397 
	C202.313980,103.094345 201.918015,103.092072 201.231476,103.024750 
z"/>
<path fill="#DF1E1E" opacity="1.000000" stroke="none" 
	d="
M209.494308,103.068680 
	C208.902115,103.112602 208.711746,103.099052 208.248596,103.173676 
	C208.153183,102.888519 208.330597,102.515190 208.798676,102.004196 
	C210.460922,101.922646 211.832474,101.978775 213.600067,102.332993 
	C213.996094,102.631065 213.949875,103.110291 213.949875,103.110291 
	C212.598633,103.077263 211.247391,103.044243 209.494308,103.068680 
z"/>
<path fill="#DB0808" opacity="1.000000" stroke="none" 
	d="
M213.980835,103.402344 
	C213.949875,103.110291 213.996094,102.631065 214.008545,102.391327 
	C214.020996,102.151588 214.502655,102.027863 214.743973,102.088318 
	C214.997284,102.318787 215.009277,102.488815 215.165619,103.175186 
	C215.861649,103.799568 216.413345,103.907600 216.965027,104.015625 
	C216.235535,104.339081 215.506042,104.662537 214.421509,104.926605 
	C214.048248,104.476288 214.030029,104.085342 213.980835,103.402344 
z"/>
<path fill="#DF1E1E" opacity="1.000000" stroke="none" 
	d="
M140.799484,102.004364 
	C142.461655,101.922935 143.832947,101.978920 145.600159,102.332993 
	C145.996094,102.631065 145.949875,103.110291 145.949875,103.110291 
	C144.598618,103.077271 143.247360,103.044243 141.494293,103.068680 
	C140.902100,103.112602 140.711731,103.099068 140.248505,103.173721 
	C140.153320,102.888535 140.330963,102.515152 140.799484,102.004364 
z"/>
<path fill="#FDEEEE" opacity="1.000000" stroke="none" 
	d="
M217.159790,103.927887 
	C216.413345,103.907600 215.861649,103.799568 215.200684,103.428436 
	C215.817032,103.106689 216.542648,103.048042 217.610413,103.117111 
	C217.814056,103.504372 217.614716,103.702812 217.159790,103.927887 
z"/>
<path fill="#F8CDCD" opacity="1.000000" stroke="none" 
	d="
M249.207596,104.944275 
	C248.928238,103.923729 248.967270,102.902962 249.039368,101.500282 
	C249.408371,102.143364 249.744308,103.168373 250.121002,104.550690 
	C249.949829,104.920029 249.737915,104.932045 249.207596,104.944275 
z"/>
<path fill="#F5BDBD" opacity="1.000000" stroke="none" 
	d="
M65.382935,103.008171 
	C65.044060,102.802483 65.147133,102.645287 65.344589,102.221596 
	C65.778587,101.701874 66.118210,101.448647 66.669632,101.153168 
	C66.904083,101.589592 66.926750,102.068268 66.829376,102.756042 
	C66.414513,102.995644 66.119698,103.026161 65.382935,103.008171 
z"/>
<path fill="#DF1E1E" opacity="1.000000" stroke="none" 
	d="
M72.784096,101.839180 
	C74.468323,101.926872 75.836868,101.980751 77.600754,102.332840 
	C77.996086,102.631058 77.949875,103.110275 77.949875,103.110275 
	C76.598961,103.077209 75.248047,103.044151 73.495461,103.068367 
	C72.883179,103.140450 72.672562,103.155258 72.204025,103.353851 
	C71.768127,103.197136 71.590149,102.856651 71.666840,101.999451 
	C72.103813,101.590279 72.286110,101.697823 72.784096,101.839180 
z"/>
<path fill="#F5BDBD" opacity="1.000000" stroke="none" 
	d="
M133.167572,103.085159 
	C133.047165,102.801338 133.149216,102.644089 133.345108,102.220963 
	C133.778595,101.701874 134.118225,101.448647 134.669632,101.153168 
	C134.903534,101.865433 134.925644,102.619949 134.828842,103.734024 
	C134.709930,104.093582 134.345963,104.132408 134.177032,104.061981 
	C133.802063,103.731613 133.596039,103.471680 133.167572,103.085159 
z"/>
<path fill="#FDEEEE" opacity="1.000000" stroke="none" 
	d="
M11.199993,103.430344 
	C11.815368,103.108437 12.541519,103.048927 13.610158,103.117142 
	C13.814185,103.504295 13.614969,103.702728 13.160383,103.928040 
	C12.414102,103.908188 11.862436,103.800461 11.199993,103.430344 
z"/>
<path fill="#DB0808" opacity="1.000000" stroke="none" 
	d="
M77.980850,103.402328 
	C77.949875,103.110275 77.996086,102.631058 78.008530,102.391327 
	C78.020981,102.151588 78.502663,102.027863 78.743973,102.088318 
	C78.997284,102.318779 79.009277,102.488800 79.165619,103.175179 
	C79.861633,103.799553 80.413300,103.907585 80.964973,104.015610 
	C80.235497,104.339066 79.506012,104.662521 78.421509,104.926590 
	C78.048256,104.476273 78.030037,104.085327 77.980850,103.402328 
z"/>
<path fill="#FDEEEE" opacity="1.000000" stroke="none" 
	d="
M81.159744,103.927887 
	C80.413300,103.907585 79.861633,103.799553 79.200684,103.428421 
	C79.817032,103.106674 80.542641,103.048035 81.610397,103.117104 
	C81.814018,103.504372 81.614677,103.702820 81.159744,103.927887 
z"/>
<path fill="#DB0808" opacity="1.000000" stroke="none" 
	d="
M145.980850,103.402344 
	C145.949875,103.110291 145.996094,102.631065 146.008545,102.391327 
	C146.020996,102.151588 146.502655,102.027863 146.743973,102.088318 
	C146.997284,102.318787 147.009277,102.488815 147.165619,103.175186 
	C147.861649,103.799568 148.413345,103.907600 148.965027,104.015625 
	C148.235535,104.339073 147.506042,104.662529 146.421509,104.926605 
	C146.048264,104.476288 146.030045,104.085342 145.980850,103.402344 
z"/>
<path fill="#FDEEEE" opacity="1.000000" stroke="none" 
	d="
M149.159790,103.927887 
	C148.413345,103.907600 147.861649,103.799568 147.200684,103.428436 
	C147.817032,103.106689 148.542648,103.048042 149.610413,103.117111 
	C149.814056,103.504372 149.614716,103.702812 149.159790,103.927887 
z"/>
</svg>