<?xml version="1.0" encoding="utf-8"?>
<!-- Generator: Adobe Illustrator 25.0.0, SVG Export Plug-In . SVG Version: 6.00 Build 0)  -->
<svg version="1.1" id="Layer_1" xmlns="http://www.w3.org/2000/svg" xmlns:xlink="http://www.w3.org/1999/xlink" x="0px" y="0px"
	 viewBox="0 0 980 560" style="enable-background:new 0 0 980 560;" xml:space="preserve">
<style type="text/css">
	.st0{fill:#CE1126;}
	.st1{fill:#FFFFFF;}
	.st2{fill:#006847;}
	.st3{fill:#30C2DC;}
	.st4{fill:#04534E;}
	.st5{fill:#A8AC71;}
	.st6{fill:#F8C83C;}
	.st7{fill:#8F4620;}
	.st8{fill:#F9C83A;}
</style>
<path class="st0" d="M0,0h980v560H0V0z"/>
<path class="st1" d="M0,0h653.3v560H0V0z"/>
<path class="st2" d="M0,0h326.7v560H0V0z"/>
<path class="st3" d="M543.8,337.8c-21.9,0.2-80.1,14.5-89.9-13.6c-8,1.4,2.3,7.4-1.3,10.3c-7.9,1.5-23.9-16.4-31.4-11.9
	c-3.8,7.1,34.7,14.8,14.4,16.5c-4.1-0.1-4.2,6.5,0,6.4c3.1-3.9,18.2-3.9,22.4,3.3c-1.2,5.8-14.2-0.1-12.8,7.9
	c10.5,4.3,18.8-8.1,30.4,5.7c26.7,9,40.1-11.9,55.2-7.9c4.2,0.1,4.3-6.6,0-6.6c-3.1,1.5-6.1,3.6-7.5-1.1
	C526.9,340.4,543.6,347.5,543.8,337.8z"/>
<g>
	<path class="st4" d="M530.5,335.3C530.5,335.3,530.5,335.3,530.5,335.3C530.5,335.3,530.5,335.3,530.5,335.3z"/>
	<polygon class="st4" points="547.2,309.4 547.2,309.4 547.2,309.4 	"/>
	<path class="st4" d="M556,325.5c-4.5-28.1-20-2.6-16.7-11.6c-3.3,2.8-3.2,10.6-9.5,9.9c-10.2-32.1-39.3,6.3-27.6-12.8
		c-14.8,5.6-31.6-13.9-37.3-4c-6.3,10.8-20.4-17.2-32.1-2.6c0.8-9.9-5.1-10.7-10.5-18.4c-2.7-5.4,1.9,2-6.7-0.1
		c-7.2-0.3-4.5,10.7-8.5,10.1c5.9,10.7,18.5,13.6,12.7,15.9c5.4-4.7,15.8,0.4,10.3,6.6c2.4-1.8,12.4-0.3,11,3.6
		c14-9.3,36.9,17,51,2.2c-0.6,0.7-1.4,17.5-0.9,17.9c14.7,9.6,19-27.7,39.5-6.7c-6-4.7,16.6-2,19.2-1.5c-6.1-3.9-0.9,0,1.5-1.5
		C540.4,330.7,568,324.2,556,325.5z"/>
	<path class="st4" d="M559.4,325.5C559.4,325.5,559.4,325.5,559.4,325.5C559.4,325.5,559.4,325.5,559.4,325.5z"/>
	<path class="st4" d="M407,295.9C407,295.9,407,295.9,407,295.9C407,295.9,407,295.9,407,295.9z"/>
	<path class="st4" d="M411.5,304.9C411.5,304.9,411.5,304.9,411.5,304.9C411.5,304.9,411.5,304.9,411.5,304.9z"/>
	<path class="st4" d="M430,318.4C430,318.4,430,318.4,430,318.4C430,318.4,430,318.4,430,318.4z"/>
	<path class="st4" d="M463.1,308.2c2.9-0.2-1.4-3.1-2.2-3.1C461,305.4,462.5,307.7,463.1,308.2z"/>
</g>
<g>
	<path class="st5" d="M440.9,279.3c-8.8,2.5-7.1-6.5-10.5-11.6c-19.3-13.5,7.4-28.1-23.3-34.9c-11.3,6.8,5.6,11.9,7.5,9.2
		c8.7,7.9-9.7,21.1,8.9,29.6C428.7,298.3,450,289.2,440.9,279.3z"/>
	<path class="st5" d="M437,192.3c-2.5,1.7-1.3,1.2-0.7,4.5C435.7,204.9,438.4,192.5,437,192.3z"/>
	<path class="st5" d="M435.9,199.7L435.9,199.7L435.9,199.7z"/>
	<path class="st5" d="M439.3,279.6L439.3,279.6C439.3,279.6,439.3,279.6,439.3,279.6z"/>
	<path class="st5" d="M462.3,273.1c-2,8.9-10.3-5.3-4-1.1c22.8-23.2-52.7-2.7-7.8-38c2.5-2.9,10.2-8.5,2.9-10.8
		c3.2,1.5,3.8,3.6,4.3-0.7c0.8-16.5-25.9-9.9-9.6,0c-18.7,14.8-35.9,46.7,5.5,44.6c1.2,2-1.1,3.5-2.4,4.7c1.1,0.1,4.1,5.9,4.2,1.7
		c2.1,1,4.9,4,1.5,4.7C461.6,281,466,277.9,462.3,273.1z M452.6,231.5c0.2-0.2,0.1-1.1,0.5-0.9C452.9,230.9,452.9,231.5,452.6,231.5
		z"/>
	<path class="st5" d="M427.6,217.4c10.4,1.3,10.3,0.9,12.3-8c-3.2,2.3-16.2-0.9-3.9-4.3c12.1-10.1-7.7,5.4-5.2-2.8
		C448.4,176.6,409.9,199.5,427.6,217.4z"/>
</g>
<g>
	<path class="st6" d="M470.2,280.1c-4.2,0.7-7.3-19.2-7.9-6.1c-1.6,17.6-12.4-19.2-21.7,2.8c-4.4,1.8,0.8,9.8,3.8,10.9
		c3,0.7,5.5-2.4,8.3-2.7c5.8,3.7,5.9-3.4,10.3-0.7C465.1,291.6,482.6,284.2,470.2,280.1z M464.6,279.7c0.2-0.2,0.4-0.4,0.7-0.6
		C465.3,279.5,464,280.9,464.6,279.7z"/>
	<path class="st6" d="M499.5,323.3C499.5,323.3,499.5,323.3,499.5,323.3C499.5,323.3,499.5,323.3,499.5,323.3z"/>
	<path class="st6" d="M529.9,312.6c-3-5.4-11.2-5.1-15.6-11.4c1.3-11.3-7.6,8.4-14.5,5.1c-3.5-2.3-15.4,5.7-8,9.1
		c-2.1-4.9,3.8-2.3,6.4-2.2c-4.9,2.6,1.4,16.2,0.6,6.5c7.6-2.5,13.1-10.6,21-6.7c0.5,5.1,16.1,2.6,7.5,7.6
		C531.6,324.2,535.9,313.8,529.9,312.6z"/>
</g>
<g>
	<path class="st7" d="M578.5,234.5c-18.8-72.7-136-76.7-87.5-45.2c6.6,4.7,4.2,16.5,1.1,7.3c-4.5-11.1-19.8-4.1-23.3-15.3
		c0.1,1.4-1.5,4.3-2.2,5c-1.9,4-2.5-9.7-3.6-4.3c-0.3,4.7-0.5,8.8-4.2,9.7c1.8-0.4,0.1-8.5-1.2-7.4c0.9,0.8-1.2,9.3-2.8,9.9
		c0.7-3.6-1.1-10.7-2.2-2.7c-13.5,17.9-6,13.5,9.8,15.4c15.8,6.3-10.1,26.1,3.5,22.3c2.2-3.3-0.2,4.2,2.8,3.8c12-8,5.5-0.7-2.1,1.4
		c-2.5,5.3-1.3,2.3-0.6-1.3c-1-5.9-7,1-7.5,8.3c2.3,4.4,1.7,18,6.5,14c2.8,2.8,0.7,6.5,2.7,10.6c0.9,2.6,8.4,9.8,4.1,6.3
		c-3.5-3.6-6-1-2.6,2.8c3.4,2.4,4.6,1.7-0.2,3.3c-6.5,4.3,7.5,4.5,9.1,5.2c7.3-1.5-0.2,2.9-3.3,1.9c-4.9-1.1-7.7-1.3-11.8-0.8
		c-9.9,1.4,11.3,6.8,8.1,4.5c-12.9-2.5-12.2-3,0.2-0.8c-3.7,9.5,9.6,2.5,12.9,2c4.3,10.7,6.3-5.5,4-6.9
		c-16.7-28.1,11.4,15.7,16,20.2c2.3-2.8,2.1-2.5-0.3-0.8c0.5,0.9-4.7-10-2.1-7.5c3.7,3.3,13.3,18.3,9.7,3.9
		c8.1,10.8,0.8-3.5,7.3,1.5c-5.9-24,3.7,17.2,34.8,1.7c31.8-5.3-54.9-35.2-34.4-55.2c4.8,2.4,23.2,27.2,14.5,8.2
		c-4.5-8.2,4,6.8,3.1,9.4c8,11.2-14.1-28.1,4-7.6c8.2,25.5,8,7.1,0.5-5.5c8.1,2.6,7.8,20.3,12.7,24.5c1.7-2.7-5.6-21.5-3.7-24.1
		c5.6,7.8,7.6,29.5,10.3,38.4c2.9-1.7-5.1-50.6,0.4-34c2.8,13.6,4.4,27.4,6,38.2c5.2-3.6-2.8-45.9,2.2-42.1
		C574.8,299.7,574.7,260.8,578.5,234.5z M475.1,206.8c-1.5,1.5,1.6-2.4-0.2-5.5C475.9,202.7,476.2,204.3,475.1,206.8z M493.6,208.6
		C493.6,208.6,493.6,208.6,493.6,208.6C493.6,208.6,493.6,208.6,493.6,208.6z M494.9,213.5c0.3,3.5,2.8,7,3.1,10.7
		C497.5,220.8,491,208.7,494.9,213.5z M490.9,227.8c2.2-7.4,3.5-2.4,5.3,0.2C493.9,224,488.1,235,490.9,227.8z M489,210.7
		C489,210.6,489,210.6,489,210.7C489,210.6,489,210.6,489,210.7z M481.9,203.2c-0.1,0.2-0.3,0.3-0.5,0.5
		C481.6,203.4,481.9,203.2,481.9,203.2z M487,212.4C487,212.5,487,212.4,487,212.4C487,212.4,487,212.5,487,212.4z M483,228.6
		c1.6-3.2,1.3,0,2.9,1.6c-1-2.4-3.3,5.5-3.8,5.5C479.3,231.7,480,231.9,483,228.6z M472.6,190.1l-0.8-0.1
		C472,190,472.3,190,472.6,190.1z M470.6,218.2c-0.7,0.5-1.4,0.8-1.9,0.9C469.3,219,469.9,218.7,470.6,218.2z M474.5,216.7
		c-0.3-0.6-0.5-1.2-0.6-1.8C474,215.5,474.2,216.1,474.5,216.7z M476.7,218.9C476.7,218.9,476.7,218.9,476.7,218.9
		C476.8,218.9,476.7,218.9,476.7,218.9z M494.5,276.6c0.8,1.5,2.1,3.8,3.6,6.1C498,281.3,487.7,275.6,494.5,276.6z M511.8,255.1
		c-1.7-2.8,1.3,0.4,0.8-2.9C513.7,252.5,511.7,254.5,511.8,255.1z M512.6,251.6C512.6,251.6,512.6,251.6,512.6,251.6
		C512.6,251.6,512.6,251.6,512.6,251.6z M480.3,212.3c-0.9-0.4,3.3,5.3,1.4,3.9c-1-2.5-1.5,0.9-2.2,1.5
		C475.3,221.7,481.8,212.8,480.3,212.3z M478,268.3c-3.6-4.2-11-9.8-10.9-14.8C463.8,252.3,487.9,277.8,478,268.3z M462.4,206.7
		L462.4,206.7C462.4,206.7,462.4,206.8,462.4,206.7z M464.8,244c-0.5-0.5-0.1-1.7-0.2-2.3C464.6,241.6,464.8,244,464.8,244z
		 M467.9,285.2c-0.3-0.1-0.5-0.2-0.7-0.4L467.9,285.2z M471.2,287l-2.4-1.3C469.1,285.8,472.2,287.1,471.2,287z M483.7,289.7
		c0.9-1.9-11.9,5.5-12.7,2.9C478.7,293.2,482.4,282.7,483.7,289.7z M503.4,296.9c-2.1-4,0.9,0.7,1.8,2.3
		C504.6,298.5,503.9,297.6,503.4,296.9z M516.8,297.7c-1.2,2.7-5.4-8.1-2.6-8.4C515,291.2,516.5,295.2,516.8,297.7z M516.2,286.4
		c0.2-1.5,0.5,0.1,0.5,0.6C516.7,286.9,516.2,286.4,516.2,286.4z M515,251.8c-0.5,0,0.2-0.1,0.3-0.2
		C515.4,251.6,515,251.8,515,251.8z"/>
	<path class="st7" d="M489.1,284.2C489.1,284.2,489.1,284.2,489.1,284.2S489.1,284.2,489.1,284.2z"/>
	<path class="st7" d="M453.3,187.8L453.3,187.8C453.3,187.8,453.3,187.8,453.3,187.8z"/>
	<path class="st7" d="M464.5,183C464.5,183,464.5,183,464.5,183C464.5,183,464.5,183,464.5,183z"/>
</g>
<path class="st8" d="M465.1,209.6c-6.3-11.8-44.8,1.4-20.2,12.9c5.5,0.3-9.3-10.6,6.4-10.9c1.5,2,3.5,3,6.1,1.6
	C445,217.3,465.3,214.1,465.1,209.6z M460.5,211.8l0.5-0.4C460.8,211.5,460.7,211.6,460.5,211.8z"/>
</svg>
