<svg xmlns="http://www.w3.org/2000/svg" width="749.3564" height="524.54948" version="1.1">
  <g stroke="none" stroke-dashoffset="0" stroke-linecap="butt" stroke-linejoin="miter" stroke-miterlimit="10" stroke-width="1" data-paper-data="{&quot;isPaintingLayer&quot;:true}" style="mix-blend-mode:normal" transform="translate(134.6782 82.27474)">
    <path fill="#fff" fill-rule="evenodd" d="m188.04009 253.79486 1.25965 4.92629-4.29711-2.7189-4.29579 2.7189 1.25965-4.92629-3.91511-3.24629 5.07563-.32383 1.87562-4.72669 1.87825 4.72669 5.07431.32383z"/>
    <path fill="#fff" fill-rule="evenodd" d="m147.15739 214.22998 1.25965 4.93025-4.29711-2.72286-4.29579 2.72286 1.25833-4.93025-3.91379-3.24233 5.07431-.32515 1.87693-4.72537 1.87693 4.72537 5.07431.32515z"/>
    <path fill="#fff" fill-rule="evenodd" d="m136.37695 159.78578 1.25965 4.92629-4.29579-2.72022-4.29711 2.72022 1.25965-4.92629-3.91511-3.24497 5.07563-.32515 1.87693-4.72669 1.87562 4.72669 5.07563.32515z"/>
    <path fill="#009c37" fill-rule="evenodd" d="M614.6782-82.27474v524.54948h-749.3564V-82.27474z"/>
    <path fill="#fee000" fill-rule="nonzero" d="m550.98291 180-310.9829 198.57945L-70.98289 180l310.9829-198.57945z"/>
    <path fill="#027" fill-rule="nonzero" d="M239.99934 48.86263c72.41357 0 131.13804 58.72377 131.13804 131.13804 0 72.41429-58.72452 131.1367-131.13804 131.1367-72.4135 0-131.1367-58.72375-131.1367-131.1367s58.72318-131.13804 131.1367-131.13804z"/>
    <path fill="#fff" fill-rule="evenodd" d="m283.12247 135.4954 1.25965 4.92629-4.29447-2.72022-4.29711 2.72022 1.26097-4.92629-3.91645-3.24497 5.07697-.32515 1.87562-4.72669 1.87428 4.72669 5.07563.32515z"/>
    <path fill="#fff" fill-rule="evenodd" d="m272.91963 172.94147.9041 3.5437-3.08901-1.95624-3.09165 1.95624.90807-3.5437-2.81803-2.33426 3.65076-.23264 1.35087-3.39962 1.34955 3.39962 3.65076.23264z"/>
    <path fill="#fff" fill-rule="evenodd" d="m136.37628 159.78578 1.25965 4.92629-4.29447-2.72022-4.29711 2.72022 1.26097-4.92629-3.91645-3.24497 5.07697-.32515 1.87562-4.72669 1.87428 4.72669 5.07563.32515z"/>
    <path fill="#fff" fill-rule="evenodd" d="m191.39345 186.39853 1.06403 4.157-3.62698-2.29462-3.62564 2.29462 1.06403-4.157-3.30446-2.74137 4.28258-.27228 1.58349-3.98781 1.58482 3.98781 4.28258.27228z"/>
    <path fill="#fff" fill-rule="evenodd" d="m157.76866 205.12422.67807 2.65018-2.31179-1.46321-2.31047 1.46321.67675-2.65018-2.1056-1.74608 2.72948-.17447 1.00984-2.54311 1.00984 2.54311 2.7308.17447z"/>
    <path fill="#fff" fill-rule="evenodd" d="m147.15607 214.23394 1.25965 4.92629-4.29447-2.72022-4.29711 2.72022 1.26097-4.92629-3.91645-3.24497 5.07697-.32515 1.87562-4.72669 1.87428 4.72669 5.07563.32515z"/>
    <path fill="#fff" fill-rule="evenodd" d="m132.94955 225.37919 1.06271 4.157-3.62564-2.29462-3.62564 2.29462 1.06271-4.157-3.30312-2.73741 4.28126-.27494 1.58482-3.99045 1.58349 3.99045 4.28258.27494z"/>
    <path fill="#fff" fill-rule="evenodd" d="m173.19781 226.39961 1.06271 4.15964-3.62432-2.29726-3.62564 2.29726 1.06271-4.15964-3.30312-2.73873 4.28258-.2736 1.58349-3.98913 1.58349 3.98913 4.28126.2736z"/>
    <path fill="#fff" fill-rule="evenodd" d="m168.07722 240.07081.90542 3.5437-3.09033-1.95756-3.09033 1.95756.90542-3.5437-2.81539-2.33426 3.65076-.23264 1.34955-3.40227 1.34955 3.40227 3.65076.23264z"/>
    <path fill="#fff" fill-rule="evenodd" d="m188.03944 253.79486 1.25965 4.92629-4.29447-2.72022-4.29711 2.72022 1.26097-4.92629-3.91645-3.24497 5.07697-.32515 1.87562-4.72669 1.87428 4.72669 5.07563.32515z"/>
    <path fill="#fff" fill-rule="evenodd" d="m241.81811 284.65582.48641 1.89279-1.65223-1.04552-1.64959 1.04552.48377-1.89279-1.50287-1.24512 1.9483-.12689.72037-1.81613.72169 1.81613 1.94962.12689z"/>
    <path fill="#fff" fill-rule="evenodd" d="m243.55228 204.01261 1.06139 4.15832-3.62564-2.29594-3.62564 2.29594 1.06271-4.15832-3.30312-2.73873 4.28258-.27494 1.58349-3.98781 1.58482 3.98781 4.28126.27494z"/>
    <path fill="#fff" fill-rule="evenodd" d="m255.54482 215.2332 1.06403 4.15832-3.62432-2.29726-3.62564 2.29726 1.06139-4.15832-3.30312-2.73741 4.28126-.27494 1.58614-3.98781 1.58349 3.98781 4.28258.27494z"/>
    <path fill="#fff" fill-rule="evenodd" d="m234.02223 223.37274.67807 2.65018-2.31179-1.46189-2.31047 1.46189.67675-2.65018-2.10692-1.74475 2.7308-.17447 1.00984-2.54443 1.00984 2.54443 2.7308.17447z"/>
    <path fill="#fff" fill-rule="evenodd" d="m225.00768 216.60918.90542 3.5437-3.09033-1.95756-3.09033 1.95756.90542-3.5437-2.81539-2.33692 3.65076-.23132 1.34955-3.40095 1.34955 3.40095 3.65076.23132z"/>
    <path fill="#fff" fill-rule="evenodd" d="m243.26084 242.43415 1.25965 4.92629-4.29447-2.72022-4.29711 2.72022 1.26097-4.92629-3.91645-3.24497 5.07697-.32515 1.87562-4.72669 1.87428 4.72669 5.07563.32515z"/>
    <path fill="#fff" fill-rule="evenodd" d="m269.44863 255.46956.9041 3.54634-3.08901-1.95756-3.09033 1.95756.90542-3.54634-2.81671-2.33162 3.65076-.23396 1.35087-3.3983 1.34955 3.3983 3.64944.23396z"/>
    <path fill="#fff" fill-rule="evenodd" d="m280.57672 271.78563 1.06271 4.15964-3.62432-2.29726-3.62698 2.29726 1.06403-4.15964-3.30312-2.73609 4.28126-.27626 1.58482-3.98781 1.58085 3.98781 4.2839.27626z"/>
    <path fill="#fff" fill-rule="evenodd" d="m292.17006 258.77138.90674 3.54238-3.09033-1.95492-3.09165 1.95492.90674-3.54238-2.81539-2.33294 3.64812-.23396 1.35218-3.40095 1.34821 3.40095 3.65076.23396z"/>
    <path fill="#fff" fill-rule="evenodd" d="m307.80673 282.23299.90542 3.54502-3.08901-1.95756-3.09033 1.95756.9041-3.54502-2.81539-2.33294 3.65208-.23396 1.34955-3.39962 1.34689 3.39962 3.6534.23396z"/>
    <path fill="#fff" fill-rule="evenodd" d="m308.3381 268.60543 1.06271 4.157-3.62698-2.29594-3.62564 2.29594 1.06403-4.157-3.30181-2.74005 4.28126-.27228 1.58217-3.99045 1.58349 3.99045 4.2839.27228z"/>
    <path fill="#fff" fill-rule="evenodd" d="m307.60054 255.73128.90807 3.54238-3.09165-1.95492-3.08901 1.95492.9041-3.54238-2.81407-2.33558 3.64944-.23396 1.34955-3.39962 1.35087 3.39962 3.65076.23396z"/>
    <path fill="#fff" fill-rule="evenodd" d="m320.554 255.85684.90542 3.54634-3.09033-1.95756-3.09033 1.95756.90674-3.54634-2.81803-2.33162 3.65076-.23396 1.35087-3.39962 1.34955 3.39962 3.65076.23396z"/>
    <path fill="#fff" fill-rule="evenodd" d="m333.17966 250.44811 1.06403 4.15437-3.62564-2.29328-3.62698 2.29328 1.06403-4.15437-3.30312-2.74137 4.28258-.27228 1.58349-3.98913 1.58217 3.98913 4.28258.27228z"/>
    <path fill="#fff" fill-rule="evenodd" d="m339.38145 240.04304 1.06403 4.15568-3.6283-2.29328-3.62564 2.29328 1.06403-4.15568-3.30181-2.74005 4.28126-.2736 1.58217-3.98781 1.58482 3.98781 4.28258.2736z"/>
    <path fill="#fff" fill-rule="evenodd" d="m334.6627 227.30569 1.25965 4.92629-4.29447-2.72022-4.29711 2.72022 1.26097-4.92629-3.91645-3.24497 5.07697-.32515 1.87562-4.72669 1.87428 4.72669 5.07563.32515z"/>
    <path fill="#fff" fill-rule="evenodd" d="m353.00638 228.16552.90542 3.5437-3.09033-1.95624-3.09165 1.95624.90807-3.5437-2.81671-2.33162 3.64944-.2366 1.35087-3.39962 1.34955 3.39962 3.64944.2366z"/>
    <path fill="#fff" fill-rule="evenodd" d="M161.66467 139.57574c-16.14268 0-32.00604 1.22793-47.50409 3.59524 1.89423-6.48333 4.28221-12.75783 7.11495-18.78781 13.24507-1.61917 26.71916-2.47041 40.39044-2.47041 78.83636 0 151.3877 27.72702 208.39607 73.89818-.83261 6.71729-2.17359 13.28258-3.99366 19.64961-54.98702-47.25765-126.45161-75.88482-204.40372-75.88482z"/>
    <path fill="#009c37" fill-rule="evenodd" d="M127.92281 132.77518c.10979 1.2808.48245 2.25099 1.11161 2.91187.62918.6609 1.45529.94509 2.47835.85784 1.03231-.08861 1.80555-.51154 2.31973-1.27023.51418-.75737.71375-1.77779.60405-3.05859-.10979-1.27818-.48113-2.24835-1.11689-2.90794-.63579-.66088-1.46982-.94507-2.50213-.85652-1.02175.08861-1.78838.51022-2.29594 1.26629-.50756.7534-.70848 1.77251-.59877 3.05729zm-2.43999.20882c-.16129-1.87957.22338-3.41417 1.15259-4.60508.92922-1.19093 2.26288-1.86372 4.00235-2.01176 1.73683-.14931 3.16699.28419 4.29315 1.30195 1.12484 1.01778 1.76723 2.46381 1.92847 4.33809.16129 1.8756-.22469 3.41283-1.16051 4.60641-.93584 1.19357-2.27083 1.86634-4.00766 2.0144-1.73947.14931-3.16831-.28419-4.28786-1.30197-1.11823-1.01776-1.7593-2.46512-1.92054-4.34205zm19.00588-2.17435 2.82465-.09385c.61067-.02098 1.0561-.16131 1.33765-.41769.27756-.25905.40841-.65428.38992-1.18827-.01686-.50624-.16916-.88559-.45734-1.13937-.28813-.25245-.71112-.36875-1.26361-.35025l-2.93435.09779.10304 3.09163zm-2.18358 6.64859-.38992-11.67398 5.66253-.18899c1.27155-.04365 2.22456.19824 2.85505.72169.63313.52343.96622 1.34689 1.00323 2.46645.0236.71112-.10566 1.31251-.3886 1.79762-.28154.48643-.70186.8248-1.25569 1.01778.51418.16393.88295.42562 1.11161.78778.22604.36351.36749.93584.42562 1.717l.09517 1.37597c0 .01124 0 .02773.00134.0489.0356.69525.20222 1.11425.49435 1.2504l.01124.3582-2.63431.08861c-.08861-.16261-.15867-.36085-.21147-.60009-.05152-.23927-.09123-.52475-.10979-.85784l-.074-1.22661c-.05152-.72171-.20222-1.20678-.45602-1.45001-.25507-.24717-.7032-.3582-1.34291-.33703l-2.54577.08468.15194 4.53901-2.403.08055zm17.23737-2.62375 1.92715.03709c1.11557.02135 1.92979-.25512 2.43869-.83007.51154-.57234.77852-1.5174.80363-2.8273.02511-1.30459-.19034-2.26948-.64239-2.89074-.45469-.62388-1.17506-.94243-2.16507-.96225l-2.21926-.04233-.14275 7.51566zm-2.39507 2.06463.22203-11.67796 4.57335.08598c1.79102.03446 3.11942.54456 3.97989 1.52664.86181.98341 1.27552 2.45853 1.23852 4.42533-.01986 1.06669-.2009 2.00515-.5406 2.81277-.34102.80761-.82744 1.45395-1.45265 1.93773-.4732.36085-1.00455.61728-1.60068.76796-.59612.14799-1.42619.21413-2.49552.19296l-3.92437-.07138zm14.81981.26039.62916-11.66207 8.46997.45733-.10979 2.0276-6.10397-.32911-.13358 2.48626 5.58187.30135-.10847 1.99457-5.58187-.3014-.16261 3.00044 6.38948.345-.11634 2.15451-8.75415-.47453zm13.74653.81688 1.2385-11.61317 3.53444.37671 1.36672 9.08593 3.22252-8.59688 3.54766.37936-1.2385 11.61449-2.23911-.23924.99795-9.36615-3.35732 9.11502-2.44398-.26171-1.39184-9.62126-.99793 9.36613-2.23909-.23924zm30.94953 3.98383 2.44661-11.42019 8.2955 1.77649-.42562 1.9853-5.97579-1.27948-.52209 2.43473 5.46556 1.16978-.41769 1.9549-5.46689-1.1711-.62916 2.93831 6.25731 1.34027-.45205 2.11089-8.57572-1.83993zm30.91514.72171 2.24435.60537c.6054.16393 1.0799.15324 1.42753-.02885.34508-.1851.5948-.56045.74815-1.13276.14388-.53532.11766-.9768-.07681-1.32708-.19821-.34762-.56307-.59349-1.09841-.73888l-2.36599-.63708-.87895 3.25951zm-.56571 2.03951-1.0799 4.0116-2.32106-.6252 3.0401-11.27745 5.01352 1.35217c1.18431.31856 1.99853.86973 2.4453 1.64827.44149.77852.50622 1.76193.18359 2.95418-.31211 1.16316-.8539 1.97872-1.6192 2.44794-.76663.46922-1.70906.55514-2.81143.25775l-2.85108-.76927zm14.04259 1.83596 2.70173.83006c.58292.17985 1.05214.193 1.40242.03971.34771-.15324.59742-.48509.75607-.99663.14799-.48377.12701-.8922-.06219-1.22529-.19183-.33174-.55385-.58026-1.08121-.74284l-2.80616-.86313-.91073 2.95816zm-4.22836 5.57527 3.43266-11.16377 5.41534 1.66411c1.21737.37403 2.03821.91203 2.46249 1.61257.42826.70186.47584 1.58745.14537 2.65943-.20756.68071-.52473 1.20678-.95299 1.57291-.42564.36745-.93186.55118-1.5161.5525.43088.32253.69394.68997.79439 1.10767.09517.41767.04084 1.00455-.15586 1.76192l-.3582 1.33104c-.0075.01124-.01124.02623-.01498.04627-.19034.66882-.17048 1.11956.06069 1.34425l-.10454.34234-2.52196-.77458c-.02997-.18247-.02997-.39258-.00374-.63577.02997-.2432.08468-.52607.17723-.84593l.32896-1.18565c.18622-.6979.20083-1.20544.03971-1.51872-.16149-.3159-.54852-.56837-1.15787-.75473l-2.43473-.74813-1.33498 4.34205-2.29858-.7098zm17.78853-.04102c-.44149 1.2081-.51548 2.24439-.2233 3.10882.29338.86445.91998 1.47246 1.88223 1.82406.97416.35557 1.85447.30005 2.64092-.17048.78646-.47054 1.39976-1.30987 1.83993-2.51665.44144-1.20548.51418-2.24176.21694-3.10752-.296-.86708-.93318-1.47774-1.90468-1.8333-.9636-.3529-1.83728-.29477-2.61581.17572-.78116.47056-1.39448 1.30987-1.83596 2.51932zm-2.29988-.84199c.64637-1.77119 1.64563-3.00044 2.98987-3.68646 1.34689-.68733 2.8392-.73225 4.48086-.13358 1.63638.60009 2.75063 1.5967 3.33749 2.99516.58952 1.39712.56311 2.97929-.08318 4.74652-.64767 1.76987-1.64694 2.9978-2.9991 3.68513-1.35087.68733-2.8458.73226-4.48348.13358-1.64166-.60009-2.75198-1.5967-3.33617-2.99252-.58424-1.39579-.55515-2.97795.09405-4.74782zm21.60584 13.71744c-.63051.37011-1.25177.57234-1.8677.61067-.61462.03446-1.26627-.09255-1.95492-.38596-1.50021-.63975-2.4942-1.67998-2.98195-3.1194-.48641-1.44076-.36755-3.01103.35706-4.70688.72961-1.7117 1.77909-2.88412 3.14449-3.51328 1.3654-.6305 2.82201-.61464 4.36983.04365 1.34689.57365 2.30783 1.36276 2.88674 2.36994.57236 1.0072.7032 2.11088.38067 3.30578l-2.25361-.96094c.10192-.61594.0075-1.1592-.28962-1.62976-.29863-.47056-.78514-.85256-1.46057-1.13937-.8975-.38332-1.74476-.35557-2.53915.08468-.79701.44015-1.43808 1.24116-1.93375 2.403-.49832 1.16848-.62126 2.19549-.36755 3.08637.25254.88823.84726 1.53195 1.78175 1.92979.69792.29869 1.37335.34099 2.0197.12945.64767-.21413 1.18431-.65692 1.59936-1.32838l-2.43473-1.03629.78383-1.83858 4.45043 1.89675-2.47967 5.81319-1.4804-.6318.26978-1.38261zm11.10558-.30795 2.53785 1.2438c.54984.26831 1.00852.35422 1.37863.25775.36607-.09779.66618-.38596.90274-.86708.2233-.45469.26453-.86048.13226-1.22001-.1375-.3582-.45733-.65956-.95299-.90279l-2.63564-1.29136-1.36278 2.77969zm-5.04785 4.84567 5.13512-10.48965 5.08885 2.49156c1.14201.55911 1.87167 1.22001 2.18096 1.97872.31174.75871.22068 1.64166-.2724 2.64752-.31174.63975-.7098 1.10899-1.18825 1.40506-.47719.29739-1.0059.39918-1.5835.30798.37671.38596.57896.79042.61065 1.21868.02997.42692-.11503.99793-.42956 1.71568l-.56307 1.25965c-.0075.00937-.01124.0236-.01873.04233-.296.63181-.34771 1.0799-.15062 1.33763l-.15848.31986-2.36864-1.15788c-.00187-.1851.02997-.39258.09405-.62916.06744-.23526.16635-.50624.30686-.80893l.50888-1.11823c.296-.6609.38992-1.16052.27764-1.49495-.10828-.33575-.45075-.64503-1.02568-.92656l-2.28538-1.12087-1.99853 4.07901-2.15845-1.05742zm13.05124 6.70274 5.6784-10.2068 7.41387 4.12394-.98739 1.77515-5.33998-2.97136-1.21074 2.17564 4.88397 2.71758-.9715 1.74608-4.88397-2.71758-1.45927 2.62505 5.58983 3.11148-1.0482 1.88485-7.66502-4.26407zm13.17949 3.62036 2.03027 1.22395c-.25254.59349-.2724 1.1354-.06219 1.62447.21132.48773.66748.94243 1.36937 1.3654.60009.36216 1.11295.52473 1.54383.49567.43224-.02773.77191-.25245 1.02437-.66882.36344-.60801-.20346-1.63372-1.70906-3.08372-.01873-.01873-.03747-.0356-.05134-.0502-.03971-.03709-.0993-.09517-.18134-.17572-.81155-.76796-1.34026-1.3958-1.58215-1.88883-.21806-.43882-.30274-.90807-.25778-1.4011.04495-.49435.2233-1.00059.53796-1.5227.58686-.97284 1.36802-1.51872 2.34215-1.64032.97154-.11896 2.08318.19692 3.33224.95035 1.16844.7045 1.91659 1.53195 2.24173 2.47967.32372.95037.20232 1.93641-.36755 2.96608l-1.9761-1.19225c.25516-.50756.29338-.98737.10979-1.44076-.18359-.45601-.5842-.87105-1.20279-1.24378-.54062-.32519-1.01646-.47189-1.43813-.43619-.419.03446-.74284.24587-.9794.63577-.31847.53005.01124 1.26629.98736 2.21532.26453.25775.47056.45997.61728.60405.6186.62388 1.04947 1.08385 1.29268 1.36936.24316.28813.43887.56573.58952.83007.26827.47056.39522.95565.37131 1.45131-.01873.49567-.18884 1.00719-.50357 1.52666-.62786 1.03891-1.46192 1.6337-2.51139 1.78572-1.04554.14931-2.20606-.15868-3.48289-.9292-1.25967-.75871-2.06992-1.64563-2.43343-2.66075-.36231-1.01776-.24579-2.07917.34883-3.18944zm12.30976 7.69805 1.96417 1.32972c-.28551.57762-.33309 1.11823-.14799 1.61919.18658.49831.61728.97414 1.29537 1.43544.57891.39258 1.08383.5829 1.51475.57629.43354-.00561.78383-.21015 1.05877-.61462.39784-.58818-.11914-1.64166-1.54254-3.16831-.01873-.02135-.03747-.03709-.04908-.05545-.03971-.03709-.09667-.0991-.1731-.18378-.76925-.80762-1.26495-1.46191-1.4804-1.96813-.19559-.45205-.25516-.92261-.18658-1.41299.07157-.49039.27764-.98737.61728-1.49231.63711-.93978 1.44866-1.44602 2.42544-1.51475.97548-.06744 2.06992.30668 3.27937 1.1235 1.1288.76663 1.8333 1.62843 2.10824 2.59333.2724.96754.10192 1.94698-.52211 2.94493l-1.91131-1.29403c.28027-.49435.34246-.9715.18622-1.43414-.15999-.46394-.53661-.90012-1.13674-1.30329-.52208-.35552-.99263-.52473-1.41294-.51418-.41904.01498-.75607.20885-1.00987.5829-.35033.51286-.05658 1.26627.86711 2.26686.24991.26963.44939.48245.58554.63313.5842.65692.99133 1.1354 1.21732 1.43678.22855.30005.40978.58688.5446.85652.24467.48643.34508.97416.29863 1.46982-.04758.49435-.24054.99529-.58162 1.49891-.68333 1.00588-1.54779 1.55704-2.60258 1.65091-1.05344.09385-2.19678-.27494-3.43396-1.11161-1.2147-.82216-1.98138-1.75004-2.288-2.78367-.30912-1.03762-.13864-2.08974.51548-3.16701zm14.84095 7.87783c-.77588 1.02306-1.14731 1.99589-1.1235 2.90527.02623.91203.44939 1.67734 1.26757 2.29594.82744.6252 1.68526.82875 2.57352.61065.88956-.22073 1.72097-.84726 2.49686-1.87296.77326-1.02042 1.14469-1.9906 1.11557-2.90791-.02997-.91469-.4613-1.68262-1.28743-2.30783-.81684-.62124-1.67072-.81818-2.55103-.59744-.88423.22206-1.71434.84593-2.49154 1.8743zm-1.95359-1.47776c1.13411-1.50549 2.45061-2.38844 3.93761-2.65148 1.4883-.26433 2.92909.12945 4.32222 1.18431 1.39186 1.0508 2.16246 2.33029 2.31844 3.83713.15586 1.5108-.33459 3.01497-1.4672 4.51518-1.13806 1.50287-2.4519 2.38581-3.94416 2.64886-1.49497.26037-2.93835-.13488-4.32621-1.18431-1.39448-1.05478-2.16509-2.33162-2.31574-3.83581-.15062-1.5042.33984-3.01103 1.4751-4.5139z"/>
  </g>
</svg>