<svg version="1.1" viewBox="0 0 700 500" xmlns="http://www.w3.org/2000/svg" xmlns:xlink="http://www.w3.org/1999/xlink">
 <path d="m0 0h1e3v500h-1e3z" fill="#1eb53a"/>
 <path d="m0 0h1e3v250h-1e3z" fill="#0099b5"/>
 <path d="m0 160h1e3v180h-1e3z" fill="#ce1126"/>
 <path d="m0 170h1e3v160h-1e3z" fill="#fff"/>
 <circle cx="140" cy="80" r="60" fill="#fff"/>
 <circle cx="160" cy="80" r="60" fill="#0099b5"/>
 <g transform="matrix(2,0,0,2,272,128)" fill="#fff">
  <g id="e">
   <g id="d">
    <g id="c">
     <g id="b">
      <path id="a" transform="rotate(18,0,-6)" d="m0-6v6h3"/>
      <use transform="scale(-1,1)" width="100%" height="100%" xlink:href="#a"/>
     </g>
     <use transform="rotate(72)" width="100%" height="100%" xlink:href="#b"/>
    </g>
    <use transform="rotate(-72)" width="100%" height="100%" xlink:href="#b"/>
    <use transform="rotate(144)" width="100%" height="100%" xlink:href="#c"/>
   </g>
   <use y="-24" width="100%" height="100%" xlink:href="#d"/>
   <use y="-48" width="100%" height="100%" xlink:href="#d"/>
  </g>
  <use x="24" width="100%" height="100%" xlink:href="#e"/>
  <use x="48" width="100%" height="100%" xlink:href="#e"/>
  <use x="-48" width="100%" height="100%" xlink:href="#d"/>
  <use x="-24" width="100%" height="100%" xlink:href="#d"/>
  <use x="-24" y="-24" width="100%" height="100%" xlink:href="#d"/>
 </g>
</svg>
