<?xml version="1.0" encoding="utf-8"?>
<!-- Generator: Adobe Illustrator 25.0.0, SVG Export Plug-In . SVG Version: 6.00 Build 0)  -->
<svg version="1.1" id="Layer_1" xmlns="http://www.w3.org/2000/svg" xmlns:xlink="http://www.w3.org/1999/xlink" x="0px" y="0px"
	 viewBox="0 0 200 200" enable-background="new 0 0 200 200" xml:space="preserve">
<rect fill="#3A4852" width="200" height="200"/>
<path fill="#00BCB4" d="M75,153.2H29.3L41.2,125h32l35.6-82.6H70.6l-28.1,65.3h17.2c1.2,2,3.4,3.4,5.9,3.4c3.8,0,6.9-3.1,6.9-6.9
	s-3.1-6.9-6.9-6.9c-2.8,0-5.1,1.6-6.2,4h-8.2l23.3-52.7h25l-30.1,70.1l-31.7,0.2l-17.4,40.5h58.8l7.7-16.8h25.5l8.5,16.8H180
	L126.6,42.5L75,153.2z M90.1,136l9.2-20.1l10.1,20.1H90.1z M124.8,153.8l-5.8-11.7h18.2c1.2,2.2,3.5,3.7,6.1,3.7
	c3.8,0,6.9-3.1,6.9-6.9c0-3.8-3.1-6.9-6.9-6.9c-2.8,0-5.2,1.7-6.3,4.1h-20.8l-13.9-26.8l10.2-22.4l11.5,23.4h5.4
	c1.1,2.3,3.5,4,6.2,4c3.8,0,6.9-3.1,6.9-6.9c0-3.8-3.1-6.9-6.9-6.9c-2.9,0-5.4,1.8-6.4,4.4h-2l-11.8-24.2l11.3-24.8l44.4,98.1H124.8
	z"/>
</svg>
